<svg xmlns="http://www.w3.org/2000/svg" xmlns:xlink="http://www.w3.org/1999/xlink" width="28.597" height="32.529" viewBox="0 0 28.597 32.529">
  <defs>
    <clipPath id="clip-path">
      <rect id="Rectangle_367" data-name="Rectangle 367" width="28.597" height="32.529" fill="#fff"/>
    </clipPath>
  </defs>
  <g id="Group_333" data-name="Group 333" clip-path="url(#clip-path)">
    <path id="Path_15876" data-name="Path 15876" d="M14.019,71.226v.458c0,2.616-.035,5.232.014,7.847a2.521,2.521,0,0,1-2.615,2.629c-.874-.037-1.753-.043-2.627,0A2.542,2.542,0,0,1,6.125,79.5c.026-5.03.01-10.061.01-15.091v-.523c-.306.312-.54.554-.778.792-.669.67-1.327,1.352-2.013,2a1.946,1.946,0,0,1-3.279-.929A1.794,1.794,0,0,1,.528,63.98q2.334-2.361,4.7-4.695A2.877,2.877,0,0,1,7.328,58.5c2.2,0,4.4-.013,6.6,0a2.677,2.677,0,0,1,2.813,2.813c.017,2.5.013,5,0,7.492a2.246,2.246,0,0,1-2.4,2.4c-.093,0-.185.01-.329.018" transform="translate(0 -50.171)" fill="#fff"/>
    <path id="Path_15877" data-name="Path 15877" d="M103.453,75.206c-.012-.1-.026-.173-.027-.241,0-.969,0-1.939,0-2.914.218-.054.415-.093.606-.15a2.915,2.915,0,0,0,2.1-2.8c.006-2.45-.019-4.9.011-7.351a3.754,3.754,0,0,0-1.128-2.936,6.217,6.217,0,0,1,.943-.158c1.479-.01,2.958-.013,4.437.018a2.585,2.585,0,0,1,1.788.834q2.262,2.258,4.519,4.521a1.953,1.953,0,1,1-2.737,2.786c-.659-.629-1.294-1.284-1.94-1.927a.727.727,0,0,0-.312-.2q.244.936.489,1.873.95,3.611,1.9,7.221a1.036,1.036,0,0,1-1.07,1.424c-.379.01-.758,0-1.136,0-.575,0-.744.168-.745.736,0,1.468,0,2.936,0,4.4a2.074,2.074,0,0,1-1.5,2.157,2.975,2.975,0,0,1-.733.1c-.52.015-1.042.007-1.562,0a2.119,2.119,0,0,1-2.271-2.259c-.006-1.456,0-2.912,0-4.368,0-.622-.153-.773-.773-.776-.282,0-.563,0-.857,0" transform="translate(-88.706 -50.301)" fill="#fff"/>
    <path id="Path_15878" data-name="Path 15878" d="M116.752,6.5a3.219,3.219,0,0,1-3.117-3.369A3.242,3.242,0,1,1,116.752,6.5" transform="translate(-97.459 0)" fill="#fff"/>
    <path id="Path_15879" data-name="Path 15879" d="M47.9,3.235A3.243,3.243,0,0,1,51.176.012a3.28,3.28,0,0,1,3.211,3.3,3.275,3.275,0,0,1-3.268,3.2A3.24,3.24,0,0,1,47.9,3.235" transform="translate(-41.086 -0.01)" fill="#fff"/>
    <path id="Path_15880" data-name="Path 15880" d="M3.277,122.057c.066.015.089.019.111.024.467.126.576.421.574.9-.022,4.519-.013,9.039-.013,13.558,0,.106.037.235-.01.315a2.225,2.225,0,0,1-.32.359,3.172,3.172,0,0,1-.342-.341c-.041-.054-.015-.161-.015-.243q0-7.134,0-14.268c0-.092.009-.185.015-.305" transform="translate(-2.791 -104.686)" fill="#fff"/>
    <path id="Path_15881" data-name="Path 15881" d="M192.832,122.159l.7-.326v14.54c0,.454-.121.683-.365.644-.377-.06-.334-.364-.334-.637q0-6.92,0-13.841Z" transform="translate(-165.387 -104.494)" fill="#fff"/>
  </g>
</svg>
