<svg xmlns="http://www.w3.org/2000/svg" xmlns:xlink="http://www.w3.org/1999/xlink" width="27.447" height="27.418" viewBox="0 0 27.447 27.418">
  <defs>
    <clipPath id="clip-path">
      <rect id="Rectangle_370" data-name="Rectangle 370" width="27.447" height="27.418" fill="#fff"/>
    </clipPath>
  </defs>
  <g id="Group_1016" data-name="Group 1016" transform="translate(0)">
    <g id="Group_339" data-name="Group 339" transform="translate(0)" clip-path="url(#clip-path)">
      <path id="Path_15903" data-name="Path 15903" d="M19.31,9.786,9.82,19.274c.253.244.525.5.789.761q1.32,1.314,2.634,2.632a2,2,0,0,1,0,3.009l-.474.473a2,2,0,0,1-3.028.006c-.063-.062-.128-.121-.23-.217-.277.29-.54.58-.817.854a1.982,1.982,0,0,1-2.874.016c-.539-.522-1.063-1.059-1.594-1.589-.062-.062-.128-.119-.229-.213-.305.317-.591.635-.9.929a1.083,1.083,0,0,1-1.185.262A1.14,1.14,0,0,1,1.5,24.3c.29-.291.587-.574.9-.883-.076-.082-.132-.145-.192-.205C1.7,22.693,1.178,22.178.663,21.657a1.993,1.993,0,0,1,0-2.97c.258-.259.519-.516.8-.792-.127-.135-.25-.26-.367-.39a1.98,1.98,0,0,1,.044-2.717c.223-.232.451-.458.681-.683a1.985,1.985,0,0,1,2.855,0q1.655,1.641,3.295,3.3a1.588,1.588,0,0,1,.158.215l9.483-9.482L15.6,6.128c-.48-.48-.962-.957-1.439-1.44a1.992,1.992,0,0,1,.011-2.932q.273-.276.549-.549a2.028,2.028,0,0,1,2.942,0c.076.074.14.161.235.271.291-.3.549-.564.812-.826A2.036,2.036,0,0,1,21.675.632c.578.57,1.145,1.151,1.751,1.762.307-.312.594-.614.892-.9a1.142,1.142,0,1,1,1.636,1.593c-.288.3-.6.584-.916.889.085.092.141.158.2.219.523.525,1.053,1.044,1.57,1.574A1.99,1.99,0,0,1,26.793,8.7c-.264.265-.536.521-.873.848a1.949,1.949,0,0,1,.3.2,1.989,1.989,0,0,1,.006,2.95c-.2.2-.4.407-.607.605a1.989,1.989,0,0,1-2.837-.007c-1.105-1.092-2.2-2.2-3.3-3.3a2.294,2.294,0,0,1-.172-.214" transform="translate(0 0)" fill="#fff"/>
    </g>
  </g>
</svg>
