<svg xmlns="http://www.w3.org/2000/svg" xmlns:xlink="http://www.w3.org/1999/xlink" width="31.724" height="25.036" viewBox="0 0 31.724 25.036">
  <defs>
    <clipPath id="clip-path">
      <rect id="Rectangle_700" data-name="Rectangle 700" width="31.724" height="25.036" fill="#fff"/>
    </clipPath>
  </defs>
  <g id="Group_1033" data-name="Group 1033" transform="translate(0)">
    <g id="Group_1032" data-name="Group 1032" transform="translate(0)" clip-path="url(#clip-path)">
      <path id="Path_16123" data-name="Path 16123" d="M73.287,18.295a5.307,5.307,0,0,0-1.95.918,1.351,1.351,0,0,1-1.718-.013,4.773,4.773,0,0,0-5.882.012,1.346,1.346,0,0,1-1.228.236,2.047,2.047,0,0,1-.6-.312,4.7,4.7,0,0,0-3.257-.922,3.068,3.068,0,0,1-.639.02c.089-.051.176-.1.266-.154q4.263-2.314,8.529-4.622a.867.867,0,0,0,.436-.515c.8-2.214,1.616-4.423,2.418-6.637a2.547,2.547,0,0,1,.767-1.1Q73.2,2.849,75.959.477A1.75,1.75,0,0,1,78.5.618a1.77,1.77,0,0,1-.267,2.532q-2.585,2.215-5.165,4.436a.938.938,0,0,0-.252.37c-.662,1.783-1.313,3.571-1.975,5.354a.569.569,0,0,0,.049.52q1.156,2.113,2.3,4.235c.033.061.058.127.1.23" transform="translate(-50.818 0)" fill="#fff"/>
      <path id="Path_16124" data-name="Path 16124" d="M27.284,183.177a3.4,3.4,0,0,1-2.145-.653,2.959,2.959,0,0,0-1.33-.608,2.345,2.345,0,0,0-1.645.366,4.446,4.446,0,0,1-1.794.846,3.711,3.711,0,0,1-2.639-.475c-.165-.1-.325-.217-.489-.324a2.332,2.332,0,0,0-2.77.01,4.273,4.273,0,0,1-1.69.786,3.7,3.7,0,0,1-2.693-.5c-.155-.1-.306-.209-.462-.309a2.33,2.33,0,0,0-2.744.01,4.263,4.263,0,0,1-1.717.8,3.647,3.647,0,0,1-2.585-.44c-.166-.1-.335-.2-.494-.317a2.716,2.716,0,0,0-1.439-.49A.625.625,0,0,1,0,181.21a.647.647,0,0,1,.686-.634,3.683,3.683,0,0,1,2.137.68,4.535,4.535,0,0,0,1.123.549,2.351,2.351,0,0,0,1.959-.41,5.566,5.566,0,0,1,1.3-.675,3.576,3.576,0,0,1,3.1.464,3.361,3.361,0,0,0,1.313.649,2.36,2.36,0,0,0,1.79-.382,4.3,4.3,0,0,1,1.8-.828,3.7,3.7,0,0,1,2.552.469c.175.107.346.223.517.337a2.329,2.329,0,0,0,2.768,0,4.388,4.388,0,0,1,1.687-.792,3.721,3.721,0,0,1,2.876.61,2.961,2.961,0,0,0,1.239.591,2.292,2.292,0,0,0,1.707-.347,4.47,4.47,0,0,1,1.942-.883,3.456,3.456,0,0,1,.678-.022.638.638,0,0,1,.545.675.608.608,0,0,1-.574.613,2.916,2.916,0,0,0-1.682.605,3.334,3.334,0,0,1-2.185.7" transform="translate(-0.001 -158.151)" fill="#fff"/>
      <path id="Path_16125" data-name="Path 16125" d="M27.179,157.031A3.509,3.509,0,0,1,25,156.264,2.423,2.423,0,0,0,22.6,155.9a3.384,3.384,0,0,0-.695.4,3.644,3.644,0,0,1-4.488-.016,2.543,2.543,0,0,0-2.247-.439,3.319,3.319,0,0,0-.868.457,3.63,3.63,0,0,1-4.487-.022,2.55,2.55,0,0,0-3.1,0,3.735,3.735,0,0,1-4.542-.006,2.716,2.716,0,0,0-1.577-.55.609.609,0,0,1-.6-.654.652.652,0,0,1,.673-.628c.062,0,.124.007.185.008a3.5,3.5,0,0,1,2.055.754,2.55,2.55,0,0,0,1.887.515,2.581,2.581,0,0,0,1.2-.526,3.771,3.771,0,0,1,1.873-.733,3.623,3.623,0,0,1,2.565.692,2.373,2.373,0,0,0,1.931.552,3.509,3.509,0,0,0,1.126-.453,4.441,4.441,0,0,1,1.983-.792,3.631,3.631,0,0,1,2.591.71,2.445,2.445,0,0,0,2.3.464,4.491,4.491,0,0,0,1.048-.579,3.631,3.631,0,0,1,3.34-.38,5.791,5.791,0,0,1,1.128.631,2.351,2.351,0,0,0,2.778-.008,4.236,4.236,0,0,1,1.663-.783,4.8,4.8,0,0,1,.707-.069.644.644,0,0,1,.692.606.61.61,0,0,1-.612.674,3.1,3.1,0,0,0-1.756.676,3.468,3.468,0,0,1-2.177.638" transform="translate(-0.002 -135.262)" fill="#fff"/>
      <path id="Path_16126" data-name="Path 16126" d="M177.34,82.876a3.52,3.52,0,1,1,3.509-3.566,3.547,3.547,0,0,1-3.509,3.566" transform="translate(-152.224 -66.425)" fill="#fff"/>
    </g>
  </g>
</svg>
