<svg id="Group_1020" data-name="Group 1020" xmlns="http://www.w3.org/2000/svg" xmlns:xlink="http://www.w3.org/1999/xlink" width="28.412" height="21.991" viewBox="0 0 28.412 21.991">
  <defs>
    <clipPath id="clip-path">
      <rect id="Rectangle_697" data-name="Rectangle 697" width="28.412" height="21.991" fill="#fff"/>
    </clipPath>
  </defs>
  <g id="Group_1019" data-name="Group 1019" clip-path="url(#clip-path)">
    <path id="Path_16098" data-name="Path 16098" d="M23.976,100.745H22.295v.329q0,2.958,0,5.916a1.4,1.4,0,1,1-2.793.041c-.006-1.852,0-3.7,0-5.555v-.729H17.827v.323q0,3.027,0,6.054a1.387,1.387,0,0,1-2.259,1.081,1.347,1.347,0,0,1-.521-1.114q0-3.013,0-6.027v-.316h-1.67v.312q0,3,0,6a1.4,1.4,0,0,1-1.364,1.456,1.379,1.379,0,0,1-1.42-1.444c-.006-1.99,0-3.981,0-5.971v-.348H8.911v.332q0,2.944,0,5.888a1.424,1.424,0,0,1-.979,1.481,1.407,1.407,0,0,1-1.818-1.435c0-1.815,0-3.629,0-5.444,0-.267,0-.535,0-.823H4.439c0,.11,0,.218,0,.325,0,1.639.005,3.277,0,4.916a2.218,2.218,0,1,1-4.422-.206c.133-1.176.207-2.358.308-3.538q.155-1.81.311-3.621c.028-.322.07-.645.072-.968,0-.234.089-.292.312-.291q4.57.01,9.139,0H27.325c.372,0,.361,0,.391.373.118,1.419.245,2.838.366,4.257.1,1.189.206,2.377.294,3.567a4.876,4.876,0,0,1,0,1.157,2.215,2.215,0,0,1-4.389-.314c-.026-1.759-.011-3.518-.013-5.277,0-.119,0-.238,0-.392" transform="translate(0 -86.535)" fill="#fff"/>
    <path id="Path_16099" data-name="Path 16099" d="M80.1,9.149H75.09c0-.535,0-1.059,0-1.583a6.546,6.546,0,0,1,.59-2.518c.327-.763.649-1.529.957-2.3a1.794,1.794,0,0,0,.12-.615c.014-.7.005-1.406.005-2.133h1.674c0,.213.019.434,0,.65a6.454,6.454,0,0,0,.7,3.554,13.451,13.451,0,0,1,.819,2.257A9.752,9.752,0,0,1,80.1,9.149" transform="translate(-66.732)" fill="#fff"/>
    <path id="Path_16100" data-name="Path 16100" d="M14.866,19.991c0,.88.005,1.748,0,2.616a5.173,5.173,0,0,1-.064.964A2.352,2.352,0,0,1,13.418,25.3a.34.34,0,0,0-.229.376c.011.405,0,.811,0,1.237H11.522c0-.431-.009-.855,0-1.277a.306.306,0,0,0-.209-.33,2.438,2.438,0,0,1-1.461-2.3c-.012-1,0-2,0-3.017Z" transform="translate(-8.754 -17.767)" fill="#fff"/>
    <path id="Path_16101" data-name="Path 16101" d="M206.244,26.9H204.57c0-.4-.013-.792,0-1.185a.418.418,0,0,0-.273-.462,2.325,2.325,0,0,1-1.39-2.08c-.038-1.062-.009-2.125-.009-3.207h5.012v.258c0,.9.007,1.8,0,2.693a2.523,2.523,0,0,1-1.5,2.395.36.36,0,0,0-.161.262c-.017.432-.008.865-.008,1.326" transform="translate(-180.315 -17.745)" fill="#fff"/>
    <path id="Path_16102" data-name="Path 16102" d="M136.782,48.978h-5.018a10.813,10.813,0,0,0-.43-3.968,4.189,4.189,0,0,1,5.448,3.968" transform="translate(-116.72 -39.823)" fill="#fff"/>
  </g>
</svg>
