<svg xmlns="http://www.w3.org/2000/svg" xmlns:xlink="http://www.w3.org/1999/xlink" width="28.162" height="28.157" viewBox="0 0 28.162 28.157">
  <defs>
    <clipPath id="clip-path">
      <rect id="Rectangle_699" data-name="Rectangle 699" width="28.162" height="28.157" fill="#fff"/>
    </clipPath>
  </defs>
  <g id="Group_1024" data-name="Group 1024" transform="translate(0)">
    <g id="Group_1023" data-name="Group 1023" transform="translate(0)" clip-path="url(#clip-path)">
      <path id="Path_16112" data-name="Path 16112" d="M28.857,15.239c-3.533,0-7.067-.016-10.6.012A1.573,1.573,0,0,1,16.614,13.6c.018-3.984.006-7.968.008-11.951A1.487,1.487,0,0,1,18.259,0h21.2a1.482,1.482,0,0,1,1.635,1.618c0,4-.007,8,.006,12.007a1.559,1.559,0,0,1-1.643,1.625c-3.533-.027-7.067-.011-10.6-.011m3.912-7.625a3.909,3.909,0,1,0-3.918,3.913,3.936,3.936,0,0,0,3.918-3.913" transform="translate(-14.777 0)" fill="#fff"/>
      <path id="Path_16113" data-name="Path 16113" d="M2.982,207.979q-1.284,0-2.567,0c-.321,0-.413-.09-.413-.4,0-1.362,0-2.723,0-4.085a1.291,1.291,0,0,1,1.272-1.3q1.711-.022,3.423,0a1.279,1.279,0,0,1,1.266,1.3c.005,1.362,0,2.723,0,4.085,0,.314-.091.4-.415.4q-1.284,0-2.567,0" transform="translate(0 -179.822)" fill="#fff"/>
      <path id="Path_16114" data-name="Path 16114" d="M203.693,207.987q-1.27,0-2.539,0c-.339,0-.424-.085-.425-.421,0-1.352,0-2.7,0-4.057a1.291,1.291,0,0,1,1.286-1.31q1.7-.019,3.395,0a1.291,1.291,0,0,1,1.28,1.317q.005,2.028,0,4.057c0,.33-.088.414-.432.414h-2.567" transform="translate(-178.53 -179.83)" fill="#fff"/>
      <path id="Path_16115" data-name="Path 16115" d="M69.89,208q-1.283,0-2.567,0c-.318,0-.408-.091-.408-.41q0-2.028,0-4.057a1.3,1.3,0,0,1,1.3-1.322q1.683-.015,3.367,0a1.29,1.29,0,0,1,1.29,1.307c0,1.361,0,2.723,0,4.084,0,.3-.094.4-.393.4-.865,0-1.73,0-2.594,0" transform="translate(-59.514 -179.838)" fill="#fff"/>
      <path id="Path_16116" data-name="Path 16116" d="M136.786,207.987q-1.27,0-2.539,0c-.338,0-.424-.085-.424-.421,0-1.352,0-2.7,0-4.057a1.293,1.293,0,0,1,1.286-1.31q1.7-.019,3.395,0a1.291,1.291,0,0,1,1.279,1.317q0,2.028,0,4.057c0,.33-.088.413-.431.414h-2.567" transform="translate(-119.022 -179.831)" fill="#fff"/>
      <path id="Path_16117" data-name="Path 16117" d="M36.427,184.482c-.206.082-.245,0-.243-.166,0-.515,0-1.03,0-1.545a1.9,1.9,0,0,0-2.012-2.028c-.274,0-.548,0-.868,0a7.186,7.186,0,0,1,.071-1.035,1.244,1.244,0,0,1,1.238-.981c1.131-.006,2.263-.008,3.394,0a1.286,1.286,0,0,1,1.278,1.286c0,.229,0,.459,0,.73-.278,0-.541,0-.8,0a1.906,1.906,0,0,0-2.054,2.068c0,.559,0,1.118,0,1.672" transform="translate(-29.622 -158.956)" fill="#fff"/>
      <path id="Path_16118" data-name="Path 16118" d="M106.308,180.722c-.284,0-.548,0-.812,0a1.9,1.9,0,0,0-2.047,2.048c0,.561,0,1.121,0,1.686-.2.093-.248.019-.246-.165.005-.515,0-1.03,0-1.545a1.9,1.9,0,0,0-2.016-2.023c-.274,0-.547,0-.837,0,0-.317-.024-.6,0-.884a1.283,1.283,0,0,1,1.232-1.13q1.738-.019,3.477,0a1.283,1.283,0,0,1,1.243,1.265c0,.238,0,.476,0,.749" transform="translate(-89.244 -158.937)" fill="#fff"/>
      <path id="Path_16119" data-name="Path 16119" d="M169.95,184.478c0-.6.005-1.187,0-1.776a1.873,1.873,0,0,0-1.445-1.9,3.461,3.461,0,0,0-.683-.059c-.236-.009-.473,0-.753,0a7.473,7.473,0,0,1,.085-1.072,1.238,1.238,0,0,1,1.212-.944c1.14-.007,2.281-.009,3.421,0a1.292,1.292,0,0,1,1.268,1.271c0,.237,0,.475,0,.745-.288,0-.552,0-.817,0a1.9,1.9,0,0,0-2.042,2.052c0,.506,0,1.012,0,1.517,0,.158-.029.256-.246.171" transform="translate(-148.593 -158.952)" fill="#fff"/>
      <path id="Path_16120" data-name="Path 16120" d="M66.735,157.252a7.231,7.231,0,0,1,.073-1.025,1.23,1.23,0,0,1,1.236-.978q1.7-.007,3.394,0a1.279,1.279,0,0,1,1.28,1.279c0,.228,0,.457,0,.723-.3,0-.583,0-.864,0a1.914,1.914,0,0,0-1.995,2.026,4.181,4.181,0,0,1-.007.441c-.006.05-.078.093-.119.139-.038-.049-.1-.095-.11-.147-.015-.146,0-.294-.006-.441a1.914,1.914,0,0,0-1.976-2.017c-.284-.007-.568,0-.907,0" transform="translate(-59.355 -138.078)" fill="#fff"/>
      <path id="Path_16121" data-name="Path 16121" d="M133.8,157.248c0-.312-.021-.588,0-.86a1.28,1.28,0,0,1,1.246-1.141q1.724-.011,3.448,0a1.282,1.282,0,0,1,1.259,1.245c.006.238,0,.476,0,.756h-.748a1.931,1.931,0,0,0-2.11,2.1,1.921,1.921,0,0,1-.006.33c-.011.062-.074.115-.114.173-.041-.056-.112-.11-.116-.169-.017-.22.006-.442-.017-.661a1.9,1.9,0,0,0-1.958-1.776c-.284-.007-.569,0-.889,0" transform="translate(-118.998 -138.073)" fill="#fff"/>
      <path id="Path_16122" data-name="Path 16122" d="M115.93,52.449c0-.45,0-.9,0-1.351a.621.621,0,0,1,.3-.607.587.587,0,0,1,.667.08c.665.458,1.337.905,2,1.364a.577.577,0,0,1,0,1.059c-.658.452-1.321.9-1.979,1.348a.61.61,0,0,1-.666.107.636.636,0,0,1-.324-.648c.005-.45,0-.9,0-1.351" transform="translate(-103.108 -44.844)" fill="#fff"/>
    </g>
  </g>
</svg>
