<svg id="Group_1018" data-name="Group 1018" xmlns="http://www.w3.org/2000/svg" xmlns:xlink="http://www.w3.org/1999/xlink" width="27.131" height="27.162" viewBox="0 0 27.131 27.162">
  <defs>
    <clipPath id="clip-path">
      <rect id="Rectangle_366" data-name="Rectangle 366" width="27.131" height="27.162" fill="#fff"/>
    </clipPath>
  </defs>
  <g id="Group_331" data-name="Group 331" clip-path="url(#clip-path)">
    <path id="Path_15872" data-name="Path 15872" d="M144.337,44.87v17.6h-.286c-1.529,0-3.058-.009-4.587,0a7.525,7.525,0,0,0-4.54,1.435c-.042.031-.088.055-.179.111v-.329q0-8.049,0-16.1c0-.406-.017-.813-.049-1.217a.318.318,0,0,1,.2-.351,8.728,8.728,0,0,1,3.982-1.144c1.81-.049,3.623-.012,5.464-.012" transform="translate(-120.378 -40.089)" fill="#fff"/>
    <path id="Path_15873" data-name="Path 15873" d="M59.892,17.623V0a5.583,5.583,0,0,1,1.775.232,6.2,6.2,0,0,1,4.308,4.522A8.224,8.224,0,0,1,66.3,7.135q0,7.572,0,15.144v.264a5.707,5.707,0,0,0-2.172-3.755,5.917,5.917,0,0,0-4.237-1.164" transform="translate(-53.527 0.001)" fill="#fff"/>
    <path id="Path_15874" data-name="Path 15874" d="M0,79.227V60.039H1.571v17.6H1.9c2,0,4,.015,6,0A6.39,6.39,0,0,1,12,79.011a.955.955,0,0,0,.652.223q.9-.025,1.8,0a1.023,1.023,0,0,0,.7-.228,6.015,6.015,0,0,1,2.582-1.222A7.016,7.016,0,0,1,19,77.643c2.069-.014,4.139-.006,6.208-.006h.346V61.63h1.579v17.6h-.3c-2.538,0-5.076.008-7.614,0a4.751,4.751,0,0,0-3.523,1.445.535.535,0,0,1-.339.144q-1.777.016-3.555,0a.532.532,0,0,1-.342-.137A4.73,4.73,0,0,0,7.91,79.223c-2.52.013-5.041,0-7.561,0Z" transform="translate(0 -53.658)" fill="#fff"/>
    <path id="Path_15875" data-name="Path 15875" d="M30.009,29.98h1.557V46h.306c.716,0,1.432,0,2.148,0A4.025,4.025,0,0,1,38,49.689a.563.563,0,0,1-.006.084c-.445-.131-.88-.293-1.33-.382a9.086,9.086,0,0,0-1.6-.2c-1.582-.026-3.165-.01-4.747-.011h-.306Z" transform="translate(-26.82 -26.794)" fill="#fff"/>
  </g>
</svg>
