<svg id="Group_1022" data-name="Group 1022" xmlns="http://www.w3.org/2000/svg" xmlns:xlink="http://www.w3.org/1999/xlink" width="28.156" height="28.157" viewBox="0 0 28.156 28.157">
  <defs>
    <clipPath id="clip-path">
      <rect id="Rectangle_698" data-name="Rectangle 698" width="28.156" height="28.158" fill="#fff"/>
    </clipPath>
  </defs>
  <g id="Group_1021" data-name="Group 1021" clip-path="url(#clip-path)">
    <path id="Path_16103" data-name="Path 16103" d="M48.675,83.142a1.984,1.984,0,0,1-1.184,2.1,3.436,3.436,0,0,1-2.257.146,21.262,21.262,0,0,1-8.529-3.3,11.456,11.456,0,0,1-2.7-2.459.524.524,0,0,1-.091-.585c.677-1.781,1.354-3.562,2-5.355a1.867,1.867,0,0,1,2.105-1.177,7.491,7.491,0,0,1,3.1,1.26,20.558,20.558,0,0,1,6.6,6.829,5.875,5.875,0,0,1,.953,2.546m-2.024.777.031-.082c.433.008.585-.145.462-.613a7.69,7.69,0,0,0-.568-1.58A17.507,17.507,0,0,0,42.532,76.7,12.753,12.753,0,0,0,38.9,74.287,4.406,4.406,0,0,0,37.819,74c-.437-.058-.564.06-.5.484a5.322,5.322,0,0,0,.368,1.281,13.762,13.762,0,0,0,2.637,3.784,16.924,16.924,0,0,0,4.707,3.743,16.978,16.978,0,0,0,1.617.629" transform="translate(-29.613 -63.383)" fill="#fff"/>
    <path id="Path_16104" data-name="Path 16104" d="M19.725,140.353c2.867,3.038,6.491,4.589,10.433,5.624a1.719,1.719,0,0,1-.184.1c-1.22.454-2.438.913-3.663,1.352a1.42,1.42,0,0,1-.661.069,14.636,14.636,0,0,1-4.934-1.509,5.939,5.939,0,0,1-2.154-1.871.486.486,0,0,1-.089-.362c.4-1.127.825-2.247,1.253-3.4" transform="translate(-16.143 -122.724)" fill="#fff"/>
    <path id="Path_16105" data-name="Path 16105" d="M96.885,7.931c-.256-.369-.471-.664-.669-.969A1.845,1.845,0,0,1,95.9,5.445a1.722,1.722,0,0,1,1.584-1.3c.349-.034.7-.057,1.078-.088-.191-.285-.378-.545-.545-.817A1.787,1.787,0,0,1,98.682.591a5.031,5.031,0,0,1,1.963-.584.467.467,0,0,1,.566.409c.061.285.122.571.17.858.072.434-.082.638-.519.727-.3.061-.589.129-.882.2a1.341,1.341,0,0,0-.2.087c.213.308.422.6.62.9a1.822,1.822,0,0,1,.283,1.692,1.709,1.709,0,0,1-1.54,1.147c-.348.04-.7.058-1.078.089.187.278.368.529.53.792a1.767,1.767,0,0,1-.735,2.709,8.643,8.643,0,0,1-1.845.542c-.346.079-.524-.081-.605-.429-.064-.274-.117-.551-.16-.828-.068-.441.079-.638.519-.728.354-.073.707-.153,1.116-.242" transform="translate(-83.272 0)" fill="#fff"/>
    <path id="Path_16106" data-name="Path 16106" d="M151.119,81.5c.087-.386.171-.717.233-1.052.094-.5.3-.658.808-.561.276.053.554.1.826.168a.438.438,0,0,1,.371.5,4.586,4.586,0,0,1-.729,2.232,1.722,1.722,0,0,1-2.3.558c-.349-.182-.669-.419-1.027-.647-.028.333-.054.658-.084.982a1.719,1.719,0,0,1-2.717,1.413c-.35-.2-.674-.451-1.063-.714-.085.36-.176.687-.236,1.019-.1.548-.3.7-.842.586-.265-.054-.534-.095-.8-.16a.44.44,0,0,1-.372-.5,4.567,4.567,0,0,1,.728-2.233,1.722,1.722,0,0,1,2.322-.546c.339.18.652.41,1,.632.029-.34.055-.676.086-1.011a1.719,1.719,0,0,1,2.688-1.4c.36.207.692.461,1.1.735" transform="translate(-125.206 -69.826)" fill="#fff"/>
    <path id="Path_16107" data-name="Path 16107" d="M142.271,35.3c-.011.607.124.7-.669.78a11.709,11.709,0,0,0-6.922,3.52,20.713,20.713,0,0,0-1.567,1.787c-.191.23-.356.292-.6.1-.191-.145-.4-.268-.6-.4a.314.314,0,0,1-.086-.507,14.6,14.6,0,0,1,8.819-5.9,9.219,9.219,0,0,1,1.087-.132c.447-.038.537.054.538.5q0,.125,0,.251" transform="translate(-115.188 -30.202)" fill="#fff"/>
    <path id="Path_16108" data-name="Path 16108" d="M1.65,182.211a10.777,10.777,0,0,0,5.423,2.966l-1.887.7c-1.346.5-2.693,1-4.036,1.511a.793.793,0,0,1-.926-.123.783.783,0,0,1-.138-.923c.486-1.285.962-2.574,1.442-3.862.032-.085.073-.165.121-.272" transform="translate(0 -159.324)" fill="#fff"/>
    <path id="Path_16109" data-name="Path 16109" d="M71.85,17.786c0-.292,0-.585,0-.877,0-.262.125-.381.384-.377s.5,0,.752,0a.32.32,0,0,1,.368.36q0,.893,0,1.785a.32.32,0,0,1-.368.361c-.251,0-.5,0-.752,0s-.387-.115-.384-.377c0-.292,0-.585,0-.877" transform="translate(-62.825 -14.456)" fill="#fff"/>
    <path id="Path_16110" data-name="Path 16110" d="M172.949,141.861c-.292,0-.585,0-.877,0a.32.32,0,0,1-.369-.36q0-.391,0-.783a.32.32,0,0,1,.368-.361c.6,0,1.19,0,1.785,0a.311.311,0,0,1,.352.343q0,.407,0,.814a.311.311,0,0,1-.352.345h-.908" transform="translate(-150.137 -122.728)" fill="#fff"/>
    <path id="Path_16111" data-name="Path 16111" d="M188.67,2.782a1.415,1.415,0,0,1-.16.244c-.409.418-.825.829-1.238,1.242a.332.332,0,0,1-.54,0c-.181-.188-.37-.368-.552-.555a.3.3,0,0,1,0-.469c.432-.438.862-.88,1.312-1.3a.4.4,0,0,1,.377-.051,8.6,8.6,0,0,1,.734.721.591.591,0,0,1,.069.168" transform="translate(-162.697 -1.63)" fill="#fff"/>
  </g>
</svg>
