<svg id="Group_1017" data-name="Group 1017" xmlns="http://www.w3.org/2000/svg" xmlns:xlink="http://www.w3.org/1999/xlink" width="28.056" height="28.053" viewBox="0 0 28.056 28.053">
  <defs>
    <clipPath id="clip-path">
      <rect id="Rectangle_375" data-name="Rectangle 375" width="28.056" height="28.053" fill="#fff"/>
    </clipPath>
  </defs>
  <g id="Group_349" data-name="Group 349" clip-path="url(#clip-path)">
    <path id="Path_15921" data-name="Path 15921" d="M67.358,204.078q-3.409,0-6.818,0a1.071,1.071,0,0,1-.4-.057.388.388,0,0,1-.173-.576,1.918,1.918,0,0,1,.339-.39,3.912,3.912,0,0,0,1.353-2.911.429.429,0,0,1,.48-.444c.493,0,.986,0,1.478,0h8.816c.486,0,.6.12.623.61A3.736,3.736,0,0,0,74.1,202.74c.162.173.334.337.5.5a.478.478,0,0,1,.172.558c-.1.235-.29.275-.514.275q-3.45,0-6.9,0Z" transform="translate(-53.329 -177.779)" fill="#fff"/>
    <path id="Path_15922" data-name="Path 15922" d="M97.415,4.381V5.7c.428,0,.852,0,1.277,0a1.239,1.239,0,0,1,1.254.978,1.842,1.842,0,0,1-.091.926c-.217.6-.5,1.169-.763,1.751-.036.082-.069.165-.113.27a1.979,1.979,0,0,1,.255.025.437.437,0,0,1-.028.866.811.811,0,0,1-.137,0H93.127a.752.752,0,0,1-.164-.006.437.437,0,0,1-.013-.862,1.986,1.986,0,0,1,.27-.026l-.894-2.011A1.32,1.32,0,0,1,92.338,6.4a1.263,1.263,0,0,1,1.153-.7c.418-.009.837,0,1.272,0V4.378a1.53,1.53,0,0,1-1.454-.5,1.3,1.3,0,0,1-.281-.892c.039-.775.585-1.172,1.753-1.245,0-.138,0-.279,0-.421A1.314,1.314,0,1,1,97.41,1.31c0,.136,0,.271,0,.443.149,0,.282,0,.416,0a1.314,1.314,0,1,1-.009,2.628h-.4" transform="translate(-82.068 0)" fill="#fff"/>
    <path id="Path_15923" data-name="Path 15923" d="M29.12,65.631c.207,0,.376,0,.545,0a1.313,1.313,0,1,1,0,2.626q-2.19.008-4.38,0a1.313,1.313,0,1,1-.01-2.626c.171,0,.341,0,.593,0A3.1,3.1,0,0,1,24.415,62.8a2.9,2.9,0,0,1,.954-2.026,3.071,3.071,0,0,1,4.31.082,3.134,3.134,0,0,1-.559,4.771" transform="translate(-21.338 -53.357)" fill="#fff"/>
    <path id="Path_15924" data-name="Path 15924" d="M172.942,65.663a5.976,5.976,0,0,1,.84.073,1.3,1.3,0,0,1,1,1.407,1.325,1.325,0,0,1-1.3,1.17q-2.2.008-4.407,0a1.313,1.313,0,0,1,0-2.626c.172,0,.344,0,.6,0a3.1,3.1,0,0,1-1.449-2.9,2.973,2.973,0,0,1,1.127-2.111,3.079,3.079,0,1,1,3.594,4.99" transform="translate(-149.358 -53.413)" fill="#fff"/>
    <path id="Path_15925" data-name="Path 15925" d="M91.153,141.482H86.964c-.351,0-.4-.069-.253-.383a19.035,19.035,0,0,0,1.551-5.41c.043-.311,0-.427.458-.366a10.111,10.111,0,0,0,1.312.024q1.588,0,3.176,0a1.385,1.385,0,0,0,.355-.012c.43-.117.431-.005.492.408a19.259,19.259,0,0,0,1.268,4.731c.1.226.2.448.3.674.106.249.051.333-.223.333q-2.122,0-4.244,0" transform="translate(-77.126 -120.444)" fill="#fff"/>
    <path id="Path_15926" data-name="Path 15926" d="M28.186,148.114H25.422c-.327,0-.372-.062-.265-.373a20.678,20.678,0,0,0,.925-3.727.287.287,0,0,1,.339-.288q2.066.015,4.132,0c.227,0,.3.094.339.29.211.958.421,1.917.658,2.868a.99.99,0,0,1-.109.649c-.23.582-.233.581-.848.581H28.186" transform="translate(-22.349 -127.952)" fill="#fff"/>
    <path id="Path_15927" data-name="Path 15927" d="M175.391,148.109c-.921,0-1.843-.005-2.764,0a.357.357,0,0,1-.368-.244,1.791,1.791,0,0,1-.118-1.451,21.51,21.51,0,0,0,.523-2.368c.047-.24.129-.334.387-.331q2.039.019,4.077,0c.234,0,.324.082.356.3a20.4,20.4,0,0,0,.917,3.7c.113.328.072.386-.275.387h-2.737" transform="translate(-153.16 -127.947)" fill="#fff"/>
    <path id="Path_15928" data-name="Path 15928" d="M8.341,191.725a1.55,1.55,0,0,0-.9,1.473,2.674,2.674,0,0,1-.876,1.914.46.46,0,0,1-.29.1c-1.918.006-3.836,0-5.754.006a.458.458,0,0,1-.494-.306c-.081-.235.04-.393.218-.538a10.479,10.479,0,0,0,1.051-.909,1.921,1.921,0,0,0,.458-1.259c.017-.33.172-.493.491-.493q3,0,6,0c.032,0,.065.005.1.008" transform="translate(0 -170.676)" fill="#fff"/>
    <path id="Path_15929" data-name="Path 15929" d="M179.2,191.717c2.1,0,4.141,0,6.184,0a.425.425,0,0,1,.449.449,2.268,2.268,0,0,0,1.014,1.841c.178.127.35.263.525.394a.427.427,0,0,1,.189.521.443.443,0,0,1-.469.3q-2.107,0-4.214,0c-.52,0-1.04.006-1.56-.005A.494.494,0,0,1,181,195.1a2.791,2.791,0,0,1-.861-1.949,1.373,1.373,0,0,0-.848-1.342c-.021-.01-.036-.033-.1-.09" transform="translate(-159.531 -170.676)" fill="#fff"/>
    <path id="Path_15930" data-name="Path 15930" d="M99.35,106.464c-.712,0-1.424,0-2.136,0a1.314,1.314,0,1,1,0-2.627q2.163,0,4.327,0a1.314,1.314,0,1,1,0,2.627c-.73,0-1.461,0-2.191,0" transform="translate(-85.348 -92.439)" fill="#fff"/>
    <path id="Path_15931" data-name="Path 15931" d="M68.57,247.582q3.5,0,7.009,0a1.153,1.153,0,0,1,.272.068,1.231,1.231,0,0,1-.117.266,1.318,1.318,0,0,1-1.108.544q-4.832,0-9.665,0c-.849,0-1.7,0-2.546,0a1.3,1.3,0,0,1-1.094-.572.961.961,0,0,1-.09-.245,1.069,1.069,0,0,1,.248-.061q3.545,0,7.091,0h0" transform="translate(-54.511 -220.409)" fill="#fff"/>
    <path id="Path_15932" data-name="Path 15932" d="M4.147,231.621c.849,0,1.7,0,2.546,0,.194,0,.3.033.24.261a.6.6,0,0,0,0,.3c.071.263-.025.326-.283.323-1.36-.011-2.72-.005-4.079-.005a1.306,1.306,0,0,1-1.115-.583.834.834,0,0,1-.077-.245,1.089,1.089,0,0,1,.227-.049c.849,0,1.7,0,2.546,0v0" transform="translate(-1.223 -206.196)" fill="#fff"/>
    <path id="Path_15933" data-name="Path 15933" d="M206.23,231.618c.84,0,1.679,0,2.519,0a1.168,1.168,0,0,1,.228.047.822.822,0,0,1-.073.247,1.26,1.26,0,0,1-1.06.581c-1.405.007-2.811,0-4.216,0-.17,0-.266-.034-.212-.236a.966.966,0,0,0,.015-.3c-.019-.341-.022-.341.336-.341h2.464Z" transform="translate(-181.077 -206.198)" fill="#fff"/>
  </g>
</svg>
