<svg id="Group_1671" data-name="Group 1671" xmlns="http://www.w3.org/2000/svg" xmlns:xlink="http://www.w3.org/1999/xlink" width="22.395" height="26" viewBox="0 0 22.395 26">
  <defs>
    <clipPath id="clip-path">
      <rect id="Rectangle_971" data-name="Rectangle 971" width="22.395" height="26" fill="#fff"/>
    </clipPath>
  </defs>
  <g id="Group_1670" data-name="Group 1670" clip-path="url(#clip-path)">
    <path id="Path_16275" data-name="Path 16275" d="M15.155,77.986a6.742,6.742,0,0,0,.516,4.3,1.879,1.879,0,0,0,.6.62c.59.409,1.208.779,1.811,1.169a8.67,8.67,0,0,1,2,1.64,2.344,2.344,0,0,1,.26,3,2.474,2.474,0,0,1-2.106,1.055c-2.644.024-5.289.019-7.933,0a2.775,2.775,0,0,1-1.53-.5,1.428,1.428,0,0,1-.181-2.355,3.118,3.118,0,0,1,1.514-.773c1.4-.282,2.8-.52,4.2-.775.219-.04.44-.072.659-.113a.369.369,0,0,0,.333-.435.362.362,0,0,0-.413-.358c-1,.028-2,.05-3,.1a11.588,11.588,0,0,0-2.869.433,4.25,4.25,0,0,0-1.808,1.02,2.967,2.967,0,0,0-.589,3.437c.046.095.093.189.154.313-.1.006-.186.017-.267.015-.922-.017-1.852.035-2.764-.07a2.322,2.322,0,0,1-1.627-3.73A7.461,7.461,0,0,1,4.134,84.19c.56-.368,1.125-.73,1.7-1.07a2.674,2.674,0,0,0,1.246-1.681,7.774,7.774,0,0,0,.138-3.526c-.081.111-.133.171-.172.238-.2.346-.411.684-.58,1.044a6.369,6.369,0,0,1-1.7,2.122c-.923.791-1.845,1.581-2.778,2.359a1.165,1.165,0,0,1-1.675-.063,1.2,1.2,0,0,1,.056-1.68c1-1.088,2.006-2.17,3-3.264a1.8,1.8,0,0,0,.333-.535c.621-1.559,1.229-3.122,1.841-4.684a1.715,1.715,0,0,1,1.778-1.227q3.879,0,7.759,0a1.675,1.675,0,0,1,1.751,1.214c.606,1.554,1.206,3.11,1.822,4.659a2.125,2.125,0,0,0,.4.632c.989,1.085,1.992,2.157,2.99,3.233a1.161,1.161,0,0,1,.286,1.21,1.141,1.141,0,0,1-.944.807,1.048,1.048,0,0,1-.9-.237c-1.227-1.061-2.493-2.086-3.642-3.227a10.9,10.9,0,0,1-1.317-2.01c-.107-.17-.193-.354-.288-.532l-.083.014" transform="translate(0 -63.78)" fill="#fff"/>
    <path id="Path_16276" data-name="Path 16276" d="M68.14,0a3.664,3.664,0,1,1-3.68,3.649A3.654,3.654,0,0,1,68.14,0" transform="translate(-56.927 0)" fill="#fff"/>
  </g>
</svg>
