<svg id="Group_1669" data-name="Group 1669" xmlns="http://www.w3.org/2000/svg" xmlns:xlink="http://www.w3.org/1999/xlink" width="25.475" height="27.382" viewBox="0 0 25.475 27.382">
  <defs>
    <clipPath id="clip-path">
      <rect id="Rectangle_970" data-name="Rectangle 970" width="25.475" height="27.382" fill="#fff"/>
    </clipPath>
  </defs>
  <g id="Group_1668" data-name="Group 1668" clip-path="url(#clip-path)">
    <path id="Path_16263" data-name="Path 16263" d="M56.322,113.247a6.378,6.378,0,0,1-6.759,5.413,6.339,6.339,0,0,1-5.816-5.418c-.1-.819-.061-1.655-.079-2.483a.313.313,0,0,1,.35-.357l9.432,0a.405.405,0,0,1,.08.024,2.591,2.591,0,0,0,.721,2.056,2.5,2.5,0,0,0,2.07.761" transform="translate(-38.882 -98.301)" fill="#fff"/>
    <path id="Path_16264" data-name="Path 16264" d="M154.017,9.841V9.553q0-4.515,0-9.03c0-.467.055-.513.515-.522a6.4,6.4,0,0,1,6.37,5.156,6.443,6.443,0,0,1-3.9,7.121c-.033.012-.068.022-.1.033-.369-1.729-.991-2.266-2.881-2.47" transform="translate(-137.135 0)" fill="#fff"/>
    <path id="Path_16265" data-name="Path 16265" d="M13.662,84.818c.093-.6.093-.6.738-.6h.821c.241,0,.377.107.375.362q0,.588,0,1.177a.315.315,0,0,1-.345.363c-.4,0-.8,0-1.2,0a.328.328,0,0,1-.357-.359c0-.08-.009-.161-.014-.245a.37.37,0,0,0-.477.177.921.921,0,0,1-1.557,0,.374.374,0,0,0-.483-.182c0,.078-.009.158-.01.238a.326.326,0,0,1-.351.364c-.392.006-.784.009-1.176,0-.277-.005-.374-.111-.384-.383,0-.071,0-.142,0-.214a.379.379,0,0,0-.5.187.937.937,0,0,1-1.552,0c-.162-.23-.162-.23-.455-.2-.01.015-.028.029-.029.044-.052.559-.059.566-.622.567-.273,0-.547,0-.821,0-.391,0-.45-.063-.471-.462,0-.044-.008-.088-.014-.149-.079-.007-.149-.018-.219-.018-1.158,0-2.316,0-3.474,0a.554.554,0,0,0-.36.13.289.289,0,0,0,.209.48c.189.023.382.009.573.014.284.009.422.117.406.329-.02.264-.2.314-.427.305-.155-.006-.31,0-.465,0a.957.957,0,1,1,.008-1.91c1.14,0,2.279,0,3.419,0h.287c.023-.03.044-.045.044-.059,0-.625.181-.57.647-.571.264,0,.529,0,.793,0,.4,0,.457.063.476.457,0,.045.007.089.012.147a.382.382,0,0,0,.491-.186.921.921,0,0,1,1.543-.007.385.385,0,0,0,.467.205c.009-.011.029-.024.03-.039.046-.571.053-.578.637-.578h.656c.582,0,.607.023.636.6a.358.358,0,0,0,.483-.174.936.936,0,0,1,1.566-.005c.156.227.156.227.455.181" transform="translate(0 -74.983)" fill="#fff"/>
    <path id="Path_16266" data-name="Path 16266" d="M34.773,176.962l1.621,1.029c-.274.662-.562,1.355-.849,2.048-.624,1.511-1.252,3.021-1.867,4.536a.5.5,0,0,1-.55.37c-.354-.022-.71,0-1.066-.006-.41,0-.526-.171-.37-.55q.974-2.369,1.954-4.736.525-1.272,1.054-2.542c.024-.057.055-.111.074-.149" transform="translate(-28.159 -157.566)" fill="#fff"/>
    <path id="Path_16267" data-name="Path 16267" d="M128.254,178.034l1.619-1.028c.026.052.07.125.1.2q1.484,3.587,2.966,7.175c.175.424.061.594-.4.595-.355,0-.711-.013-1.065,0a.452.452,0,0,1-.493-.331q-1.173-2.861-2.358-5.716l-.374-.9" transform="translate(-114.196 -157.605)" fill="#fff"/>
    <path id="Path_16268" data-name="Path 16268" d="M73.865,208.124H66.054l.61-1.479c.172-.418.173-.418.613-.418,1.85,0,3.7,0,5.55,0a.322.322,0,0,1,.361.237c.21.549.442,1.091.677,1.665" transform="translate(-58.814 -183.619)" fill="#fff"/>
    <path id="Path_16269" data-name="Path 16269" d="M143.3,97.8a1.9,1.9,0,1,1-1.937-1.9,1.9,1.9,0,0,1,1.937,1.9m-1.913.956a.959.959,0,0,0,.969-.937.956.956,0,1,0-1.912-.024.954.954,0,0,0,.943.961" transform="translate(-124.206 -85.391)" fill="#fff"/>
    <path id="Path_16270" data-name="Path 16270" d="M96.992,23.948a1.688,1.688,0,0,1-.39.956,1.728,1.728,0,0,0-.269.573c-.061.208-.137.366-.381.33a.3.3,0,0,1-.259-.4,2.839,2.839,0,0,1,.372-.855c.369-.5.394-.8,0-1.256a1.45,1.45,0,0,1,0-1.963,1.756,1.756,0,0,0,.273-.6c.059-.187.138-.323.349-.307a.309.309,0,0,1,.3.379,1.477,1.477,0,0,1-.373.887.81.81,0,0,0-.008,1.252,1.513,1.513,0,0,1,.386,1" transform="translate(-85.19 -18.186)" fill="#fff"/>
    <path id="Path_16271" data-name="Path 16271" d="M123.163,20.824a1.438,1.438,0,0,1-.4.9.789.789,0,0,0,0,1.186,1.448,1.448,0,0,1,.006,2,1.472,1.472,0,0,0-.261.577c-.054.208-.143.335-.365.315s-.29-.177-.278-.368a1.43,1.43,0,0,1,.367-.889.83.83,0,0,0,.005-1.274,1.429,1.429,0,0,1-.009-1.916,1.786,1.786,0,0,0,.3-.62c.059-.205.137-.34.363-.314s.285.193.271.4" transform="translate(-108.507 -18.185)" fill="#fff"/>
    <path id="Path_16272" data-name="Path 16272" d="M69.629,25.45A1.37,1.37,0,0,1,70,24.539a.807.807,0,0,0,.008-1.232A1.442,1.442,0,0,1,70,21.345a1.541,1.541,0,0,0,.281-.6c.052-.2.129-.32.338-.313s.3.15.293.35a1.362,1.362,0,0,1-.366.917.813.813,0,0,0-.008,1.252,1.441,1.441,0,0,1,.006,1.942,1.526,1.526,0,0,0-.288.6c-.052.211-.13.342-.354.325s-.288-.186-.277-.366" transform="translate(-61.991 -18.192)" fill="#fff"/>
    <path id="Path_16273" data-name="Path 16273" d="M222.2,44.469a1.565,1.565,0,0,1,1.112,1.524,1.549,1.549,0,0,1-1.12,1.458,7.446,7.446,0,0,0,.008-2.982" transform="translate(-197.842 -39.595)" fill="#fff"/>
    <path id="Path_16274" data-name="Path 16274" d="M154.37,111.066c-.193-.024-.306-.12-.3-.318a.281.281,0,0,1,.3-.305.285.285,0,0,1,.308.328c-.005.2-.134.28-.311.3" transform="translate(-137.182 -98.337)" fill="#fff"/>
  </g>
</svg>
