<svg id="Group_1673" data-name="Group 1673" xmlns="http://www.w3.org/2000/svg" xmlns:xlink="http://www.w3.org/1999/xlink" width="27.539" height="20.628" viewBox="0 0 27.539 20.628">
  <defs>
    <clipPath id="clip-path">
      <rect id="Rectangle_972" data-name="Rectangle 972" width="27.538" height="20.628" fill="#fff"/>
    </clipPath>
  </defs>
  <g id="Group_1672" data-name="Group 1672" clip-path="url(#clip-path)">
    <path id="Path_16277" data-name="Path 16277" d="M70.776,105.715q-1.693,0-3.385,0a3.449,3.449,0,0,1-3.479-3.47,9.677,9.677,0,0,1,.209-2.663,5.638,5.638,0,0,1,4.846-4.118,14.284,14.284,0,0,1,4.3.1,5.639,5.639,0,0,1,4.342,4.883,7.321,7.321,0,0,1-.1,2.824,3.42,3.42,0,0,1-3.268,2.441c-1.155,0-2.31,0-3.466,0" transform="translate(-57.031 -85.088)" fill="#fff"/>
    <path id="Path_16278" data-name="Path 16278" d="M94.448,4.582A4.578,4.578,0,1,1,89.89,0a4.587,4.587,0,0,1,4.559,4.582" transform="translate(-76.111 0)" fill="#fff"/>
    <path id="Path_16279" data-name="Path 16279" d="M181.891,82.466a8.132,8.132,0,0,0-3.774-6.791,3.279,3.279,0,0,1,1.835-1.121,4.225,4.225,0,0,1,.9-.1c.849,0,1.7-.024,2.548.04a3.279,3.279,0,0,1,2.97,2.735,15.685,15.685,0,0,1,.048,3.237,2.13,2.13,0,0,1-2.051,1.985c-.764.067-1.538.026-2.307.033a1.525,1.525,0,0,1-.173-.019" transform="translate(-158.943 -66.436)" fill="#fff"/>
    <path id="Path_16280" data-name="Path 16280" d="M8.347,75.4a8.128,8.128,0,0,0-3.777,6.79c-.839,0-1.66,0-2.481,0a1.6,1.6,0,0,1-.394-.07A2.281,2.281,0,0,1,0,79.925Q0,78.744,0,77.563a3.406,3.406,0,0,1,3.055-3.344,13.7,13.7,0,0,1,3.425.057A3.153,3.153,0,0,1,8.347,75.4" transform="translate(0 -66.159)" fill="#fff"/>
    <path id="Path_16281" data-name="Path 16281" d="M17.487,3.432A3.438,3.438,0,1,1,14.064,0a3.431,3.431,0,0,1,3.423,3.432" transform="translate(-9.469 0)" fill="#fff"/>
    <path id="Path_16282" data-name="Path 16282" d="M181.145,3.422A3.422,3.422,0,0,1,184.632,0a3.458,3.458,0,0,1,3.389,3.452,3.438,3.438,0,1,1-6.877-.031" transform="translate(-161.645 -0.001)" fill="#fff"/>
  </g>
</svg>
