<svg id="Group_1665" data-name="Group 1665" xmlns="http://www.w3.org/2000/svg" xmlns:xlink="http://www.w3.org/1999/xlink" width="23.784" height="21.957" viewBox="0 0 23.784 21.957">
  <defs>
    <clipPath id="clip-path">
      <rect id="Rectangle_966" data-name="Rectangle 966" width="23.784" height="21.957" fill="#fff"/>
    </clipPath>
  </defs>
  <g id="Group_1664" data-name="Group 1664" clip-path="url(#clip-path)">
    <path id="Path_16253" data-name="Path 16253" d="M6.288,20.06a42.813,42.813,0,0,0-3.5-14.5c.254.158.47.283.676.422a12.453,12.453,0,0,1,4.128,4.8,21.8,21.8,0,0,1,1.961,5.908,27.126,27.126,0,0,1,.468,3.876c0,.038.008.075.013.112h.072c0-.449-.017-.9,0-1.347a38.551,38.551,0,0,1,1.511-9.292,23.123,23.123,0,0,1,3.651-7.529A15.7,15.7,0,0,1,17.632,0a63.925,63.925,0,0,0-3.784,19.587c.108-.777.194-1.558.327-2.33A20.653,20.653,0,0,1,17.021,9.43,11.492,11.492,0,0,1,20.8,5.7c.063-.038.129-.071.229-.126a43.012,43.012,0,0,0-3.446,13.856,8.7,8.7,0,0,1,6.2-7.045,16.978,16.978,0,0,0-2.651,9.569H2.634a19.852,19.852,0,0,0-.6-4.983A13.617,13.617,0,0,0,0,12.427c2.775.749,5.659,3.068,6.288,7.633" fill="#fff"/>
  </g>
</svg>
