<svg xmlns="http://www.w3.org/2000/svg" xmlns:xlink="http://www.w3.org/1999/xlink" width="36.938" height="38.71" viewBox="0 0 36.938 38.71">
  <defs>
    <clipPath id="clip-path">
      <rect id="Rectangle_647" data-name="Rectangle 647" width="36.938" height="38.711" fill="#0f385c"/>
    </clipPath>
  </defs>
  <g id="Group_929" data-name="Group 929" opacity="0.9">
    <g id="Group_928" data-name="Group 928" clip-path="url(#clip-path)">
      <path id="Path_16057" data-name="Path 16057" d="M35.545,0c1.009.254,2.015.517,3.026.761Q44.6,2.212,50.635,3.653c.073.017.142.048.317.107-.671.159-1.247.3-1.823.432-2.313.543-4.622,1.1-6.94,1.622a26.543,26.543,0,0,1-5.1.555A38.954,38.954,0,0,1,30.3,6.1c-1.464-.216-2.908-.578-4.355-.9-1.937-.437-3.868-.9-5.8-1.355-.072-.017-.14-.048-.3-.106.925-.225,1.758-.429,2.592-.631Q28.7,1.6,34.966.083a1.354,1.354,0,0,0,.2-.083Z" transform="translate(-16.924)" fill="#0f385c"/>
      <path id="Path_16058" data-name="Path 16058" d="M4.091,134.224c1.1.465,2.143.9,3.183,1.343,1.39.589,2.755,1.248,4.176,1.748a16.737,16.737,0,0,0,2.976.647,28.282,28.282,0,0,0,5.733.226,20.5,20.5,0,0,0,4.922-.715,29.592,29.592,0,0,0,2.931-1.2q2.225-.938,4.448-1.884c.113-.048.226-.093.384-.158-.066.832-.127,1.608-.189,2.385a.945.945,0,0,1-.021.15.75.75,0,0,0,.474.948c.968.511,1.9,1.09,2.845,1.646a1.632,1.632,0,0,1,.059,2.97q-8.523,5.365-17.047,10.728a.828.828,0,0,1-1-.009Q9.442,147.675.914,142.319a1.626,1.626,0,0,1,.053-2.949q1.545-.913,3.1-1.806a.434.434,0,0,0,.259-.476c-.086-.927-.155-1.856-.237-2.864m.648,6.679c.12.084.179.129.242.168q6.622,4.164,13.239,8.335c.24.152.38.066.565-.051q6.508-4.1,13.018-8.189c.123-.077.242-.16.4-.263-.387-.226-.732-.41-1.056-.624a.421.421,0,0,0-.54.015c-1.443.947-2.912,1.854-4.339,2.824a12.438,12.438,0,0,1-4.938,1.745c-.327.059-.477-.084-.518-.383a3.658,3.658,0,0,1-.036-.489q0-1.8,0-3.594v-.425H16.163v.432c0,1.2,0,2.4,0,3.594a3.139,3.139,0,0,1-.041.526.363.363,0,0,1-.48.342c-.308-.062-.621-.1-.927-.172a11.478,11.478,0,0,1-4.112-1.621c-1.4-.964-2.848-1.86-4.281-2.775a.5.5,0,0,0-.395-.076c-.392.194-.762.431-1.187.68" transform="translate(0 -114.51)" fill="#0f385c"/>
      <path id="Path_16059" data-name="Path 16059" d="M117.757,55.553h-3.025c-.041-2.011-.083-4.006-.124-6.025h3.268c-.039,2-.079,4-.119,6.025" transform="translate(-97.775 -42.253)" fill="#0f385c"/>
      <path id="Path_16060" data-name="Path 16060" d="M93.891,53.758c-.973-.119-1.908-.224-2.838-.361-.087-.013-.2-.228-.206-.353-.054-1.664-.092-3.328-.132-4.992,0-.21,0-.421,0-.661l2.13.192c.088.008.175.021.263.028.689.053.687.052.7.765q.04,2.478.084,4.955c0,.124,0,.247,0,.426" transform="translate(-77.389 -40.431)" fill="#0f385c"/>
      <path id="Path_16061" data-name="Path 16061" d="M139.262,53.866c0-.823-.008-1.59,0-2.356.015-1.135.052-2.269.06-3.4,0-.278.087-.359.365-.376.766-.046,1.53-.133,2.3-.2.134-.012.27,0,.426,0,0,.449.009.887,0,1.325-.035,1.437-.079,2.874-.112,4.311,0,.215-.045.353-.3.38-.9.1-1.8.21-2.74.322" transform="translate(-118.805 -40.545)" fill="#0f385c"/>
      <path id="Path_16062" data-name="Path 16062" d="M19.757,29.788c1.168.3,2.3.579,3.423.887a.471.471,0,0,1,.225.358c.073,1.117.124,2.236.181,3.354.028.552.057,1.1.089,1.711-.9-.334-1.734-.717-2.611-.951A1.255,1.255,0,0,1,20.012,33.7c0-1.09-.165-2.18-.252-3.27-.016-.2,0-.4,0-.64" transform="translate(-16.851 -25.413)" fill="#0f385c"/>
      <path id="Path_16063" data-name="Path 16063" d="M209.121,29.9c-.058.786-.111,1.549-.172,2.311-.065.8-.131,1.6-.216,2.4a.453.453,0,0,1-.216.324c-1.087.421-2.182.822-3.319,1.244,0-.26-.01-.49,0-.719.071-1.395.156-2.789.213-4.184.014-.336.1-.5.461-.582,1-.225,1.995-.5,2.991-.761.07-.018.143-.022.256-.038" transform="translate(-175.056 -25.505)" fill="#0f385c"/>
      <path id="Path_16064" data-name="Path 16064" d="M70.882,48.963c-.919-.319-1.772-.609-2.618-.916A.337.337,0,0,1,68.1,47.8c-.1-1.823-.189-3.646-.279-5.469,0-.021.022-.043.047-.09l2.855.708c.052,1.967.1,3.94.159,6.018" transform="translate(-57.859 -36.033)" fill="#0f385c"/>
      <path id="Path_16065" data-name="Path 16065" d="M162.991,42.946l2.854-.708c0,.45.017.874,0,1.3q-.1,2.094-.225,4.186c-.007.114-.082.292-.168.324-.844.313-1.7.6-2.616.92.055-2.08.107-4.053.159-6.02" transform="translate(-138.916 -36.034)" fill="#0f385c"/>
      <path id="Path_16066" data-name="Path 16066" d="M26.519,76.171c-.845-.359-1.646-.757-2.486-1.037A1.243,1.243,0,0,1,23,73.8c0-1.04-.142-2.08-.225-3.157a2.2,2.2,0,0,1,.253.06c1.012.375,2.026.748,3.032,1.139a.44.44,0,0,1,.246.3c.086,1.268.151,2.538.221,3.807,0,.06-.006.12-.012.225" transform="translate(-19.432 -60.267)" fill="#0f385c"/>
      <path id="Path_16067" data-name="Path 16067" d="M203.124,75.989c.063-1.139.181-2.269.167-3.4a1,1,0,0,1,.872-1.129c.792-.236,1.555-.569,2.332-.858.115-.043.233-.077.386-.127-.057.765-.109,1.49-.165,2.215-.042.539-.077,1.079-.14,1.616a.48.48,0,0,1-.2.341c-1.034.456-2.077.892-3.118,1.331a.471.471,0,0,1-.128.009" transform="translate(-173.29 -60.126)" fill="#0f385c"/>
      <path id="Path_16068" data-name="Path 16068" d="M187.82,36.911c-.022.466-.038.878-.061,1.29-.072,1.309-.144,2.618-.226,3.926a.342.342,0,0,1-.144.257c-.77.3-1.546.589-2.334.884,0-.423-.016-.809,0-1.193q.1-2.115.227-4.229c.007-.112.088-.292.17-.315.77-.219,1.548-.41,2.364-.62" transform="translate(-157.87 -31.49)" fill="#0f385c"/>
      <path id="Path_16069" data-name="Path 16069" d="M50.35,43.268c-.836-.313-1.613-.6-2.382-.9a.342.342,0,0,1-.143-.257c-.082-1.345-.153-2.691-.227-4.037-.021-.374-.041-.748-.065-1.183.831.216,1.618.415,2.4.631.063.017.132.146.137.226.1,1.81.186,3.62.28,5.52" transform="translate(-40.552 -31.472)" fill="#0f385c"/>
      <path id="Path_16070" data-name="Path 16070" d="M95.439,99.294c-.923-.109-1.846-.213-2.767-.334a.3.3,0,0,1-.2-.209c-.012-1.42-.009-2.841-.009-4.279l2.977.33Z" transform="translate(-78.881 -80.596)" fill="#0f385c"/>
      <path id="Path_16071" data-name="Path 16071" d="M138.688,94.748l3.07-.341c.005.112.017.221.015.331-.03,1.259-.068,2.518-.088,3.777,0,.277-.081.392-.38.42-.875.081-1.745.2-2.617.306Z" transform="translate(-118.318 -80.541)" fill="#0f385c"/>
      <rect id="Rectangle_646" data-name="Rectangle 646" width="2.884" height="4.477" transform="translate(17.029 14.236)" fill="#0f385c"/>
      <path id="Path_16072" data-name="Path 16072" d="M70.184,88.523c.864.243,1.7.471,2.523.716a.32.32,0,0,1,.2.218c.052,1.419.089,2.838.132,4.364-.585-.184-1.106-.386-1.644-.51a1.245,1.245,0,0,1-1.061-1.45c.015-1.116-.092-2.234-.146-3.338" transform="translate(-59.876 -75.521)" fill="#0f385c"/>
      <path id="Path_16073" data-name="Path 16073" d="M164.781,88.428c-.067,1.223-.175,2.44-.184,3.657a.914.914,0,0,1-.759,1.028c-.621.176-1.225.413-1.873.635a2.739,2.739,0,0,1-.036-.307c.036-1.307.079-2.615.108-3.923.005-.242.082-.332.329-.4.8-.2,1.586-.453,2.414-.695" transform="translate(-138.145 -75.44)" fill="#0f385c"/>
      <path id="Path_16074" data-name="Path 16074" d="M52.641,85.835c-.85-.36-1.635-.688-2.415-1.028a.279.279,0,0,1-.129-.2c-.079-1.353-.148-2.707-.223-4.122.835.311,1.609.6,2.38.894a.264.264,0,0,1,.143.184c.086,1.4.162,2.805.244,4.275" transform="translate(-42.549 -68.66)" fill="#0f385c"/>
      <path id="Path_16075" data-name="Path 16075" d="M185.6,80.5c-.042.875-.079,1.69-.12,2.5-.025.5-.048,1.006-.09,1.507-.009.11-.065.275-.145.311-.776.347-1.562.671-2.4,1.023.034-.727.063-1.391.1-2.055.036-.691.071-1.382.12-2.072.008-.11.057-.282.132-.312.778-.309,1.566-.594,2.4-.9" transform="translate(-155.99 -68.681)" fill="#0f385c"/>
      <path id="Path_16076" data-name="Path 16076" d="M29.133,110.1c-.148-.05-.267-.082-.379-.129-.879-.372-1.756-.751-2.638-1.117a.417.417,0,0,1-.314-.4c-.065-.965-.152-1.928-.235-2.946a3.3,3.3,0,0,1,.317.094c.938.4,1.876.79,2.807,1.2.118.052.275.184.282.288.068.989.108,1.981.158,3.011" transform="translate(-21.813 -90.011)" fill="#0f385c"/>
      <path id="Path_16077" data-name="Path 16077" d="M201.622,110.244c.052-1.067.1-2.047.155-3.026a.352.352,0,0,1,.171-.254c1.038-.448,2.083-.881,3.126-1.317.018-.008.047.01.116.027-.085,1.006-.169,2.02-.26,3.033a.243.243,0,0,1-.107.175c-1.047.451-2.1.895-3.2,1.361" transform="translate(-172.008 -90.129)" fill="#0f385c"/>
      <path id="Path_16078" data-name="Path 16078" d="M93.212,131.226c.883.086,1.772.166,2.658.265.1.012.283.122.284.19.018,1,.013,2.007.013,3.078l-2.955-.321Z" transform="translate(-79.521 -111.952)" fill="#0f385c"/>
      <path id="Path_16079" data-name="Path 16079" d="M141.039,131.151v3.218l-2.986.331v-3.227l2.986-.321" transform="translate(-117.776 -111.888)" fill="#0f385c"/>
      <path id="Path_16080" data-name="Path 16080" d="M116.6,133.541h2.678c0,1.019,0,2.021-.009,3.023a.291.291,0,0,1-.206.195c-.741.015-1.483.018-2.225,0a.345.345,0,0,1-.229-.248c-.016-.979-.01-1.959-.01-2.969" transform="translate(-99.476 -113.927)" fill="#0f385c"/>
      <path id="Path_16081" data-name="Path 16081" d="M164.266,125.432c-.055,1-.1,1.993-.174,2.983a.375.375,0,0,1-.215.249c-.724.273-1.454.528-2.217.8v-3.229l2.606-.8" transform="translate(-137.916 -107.009)" fill="#0f385c"/>
      <path id="Path_16082" data-name="Path 16082" d="M74.694,129.481c-.752-.269-1.493-.53-2.228-.805a.342.342,0,0,1-.2-.223c-.068-1-.119-2-.173-3l2.6.8Z" transform="translate(-61.505 -107.025)" fill="#0f385c"/>
      <path id="Path_16083" data-name="Path 16083" d="M51.811,116.365c.821.347,1.595.672,2.365,1,.068.029.155.114.159.177.065,1.013.118,2.027.177,3.108-.85-.361-1.637-.688-2.412-1.036-.079-.036-.134-.2-.14-.313-.056-.955-.1-1.91-.148-2.941" transform="translate(-44.201 -99.274)" fill="#0f385c"/>
      <path id="Path_16084" data-name="Path 16084" d="M181.286,120.755c.059-1.077.111-2.07.175-3.062a.309.309,0,0,1,.155-.219c.769-.336,1.544-.66,2.331-.992,0,.286.009.544,0,.8-.028.692-.07,1.384-.093,2.077a.432.432,0,0,1-.311.446c-.732.292-1.455.609-2.255.949" transform="translate(-154.659 -99.374)" fill="#0f385c"/>
    </g>
  </g>
</svg>
