<svg xmlns="http://www.w3.org/2000/svg" xmlns:xlink="http://www.w3.org/1999/xlink" width="38.75" height="38.71" viewBox="0 0 38.75 38.71">
  <defs>
    <clipPath id="clip-path">
      <rect id="Rectangle_339" data-name="Rectangle 339" width="38.75" height="38.711" fill="#0f385c"/>
    </clipPath>
  </defs>
  <g id="Group_942" data-name="Group 942" opacity="0.9">
    <g id="Group_275" data-name="Group 275" clip-path="url(#clip-path)">
      <path id="Path_15800" data-name="Path 15800" d="M8.307,20.051c-1.131-1.131-2.248-2.239-3.355-3.358-1.045-1.057-2.158-2.059-3.1-3.2a8.3,8.3,0,1,1,14.58-7.011,7.856,7.856,0,0,1-2,7.446c-1.937,2.068-3.993,4.025-6,6.03a1.3,1.3,0,0,1-.125.091M13.241,8.3a4.918,4.918,0,1,0-4.923,4.921A4.931,4.931,0,0,0,13.241,8.3" transform="translate(0 0)" fill="#0f385c"/>
      <path id="Path_15801" data-name="Path 15801" d="M181.567,173.626c-1.486-1.448-3.133-2.893-4.585-4.512a5.556,5.556,0,0,1-1.033-5.971,5.722,5.722,0,0,1,4.739-3.848,5.987,5.987,0,0,1,6.863,4.869,5.416,5.416,0,0,1-1.237,4.843c-1.506,1.639-3.187,3.117-4.746,4.62" transform="translate(-148.922 -135.103)" fill="#0f385c"/>
      <path id="Path_15802" data-name="Path 15802" d="M67.339,133.419v2.268h-.412q-6.089,0-12.179,0a7.33,7.33,0,0,1-7.271-6.124,7.245,7.245,0,0,1,6.232-8.38c1.62-.177,3.272-.071,4.909-.1a3.9,3.9,0,0,0,.566-.024,2.254,2.254,0,0,0-.331-4.49c-1.3-.019-2.6,0-3.9,0h-.434v-2.239a2.526,2.526,0,0,1,.276-.029c1.374,0,2.749-.022,4.123,0a4.525,4.525,0,0,1,.037,9.049c-1.424.015-2.849,0-4.274,0a5.027,5.027,0,0,0-.956,9.964,5.951,5.951,0,0,0,1.127.093q5.995.01,11.99,0Z" transform="translate(-40.197 -96.977)" fill="#0f385c"/>
      <path id="Path_15803" data-name="Path 15803" d="M42.772,39.992a2.646,2.646,0,1,1-2.646-2.635,2.646,2.646,0,0,1,2.646,2.635" transform="translate(-31.802 -31.698)" fill="#0f385c"/>
    </g>
  </g>
</svg>
