<svg xmlns="http://www.w3.org/2000/svg" xmlns:xlink="http://www.w3.org/1999/xlink" width="51.987" height="38.71" viewBox="0 0 51.987 38.71">
  <defs>
    <clipPath id="clip-path">
      <rect id="Rectangle_651" data-name="Rectangle 651" width="51.987" height="38.71" fill="#0f385c"/>
    </clipPath>
  </defs>
  <g id="Group_944" data-name="Group 944" opacity="0.9">
    <g id="Group_943" data-name="Group 943" clip-path="url(#clip-path)">
      <path id="Path_16094" data-name="Path 16094" d="M.038,16.166H.757q10.81,0,21.621,0c.988,0,1.542-.326,1.785-1.031a1.416,1.416,0,0,0-.344-1.545q-3.27-3.3-6.565-6.568a1.858,1.858,0,0,0-1.41-.442q-7.588.006-15.175,0H0c0-.554,0-1.073,0-1.591,0-1.1,0-2.2,0-3.3A1.522,1.522,0,0,1,1.623.075q6.9,0,13.8.012A1.093,1.093,0,0,1,16.108.4q7.066,7.035,14.1,14.1a5.383,5.383,0,0,0,4.036,1.67c4.788-.019,9.575,0,14.363-.019a1.426,1.426,0,0,1,1.136.5,7.646,7.646,0,0,1,1.074,9.42A6.614,6.614,0,0,1,45.1,29.192Q23.38,29.22,1.658,29.2A1.516,1.516,0,0,1,0,27.62Q0,22.089,0,16.559c0-.114.02-.229.034-.392" transform="translate(-0.001 -0.058)" fill="#0f385c"/>
      <path id="Path_16095" data-name="Path 16095" d="M1.693,161.852a8,8,0,0,1-1.509-3.391H15.939a8.273,8.273,0,0,1-1.529,3.4H24.535a8.029,8.029,0,0,1-1.512-3.4H38.829c-.208.6-.367,1.194-.615,1.746s-.591,1.087-.928,1.693h.606q6.141,0,12.282,0a1.725,1.725,0,0,1,1.454.571,1.5,1.5,0,0,1-1.012,2.465c-.168.015-.338.011-.507.011q-24.107,0-48.214.006a1.706,1.706,0,0,1-1.663-.738,1.505,1.505,0,0,1,.89-2.233c.176-.049.357-.081.573-.129" transform="translate(-0.009 -126.241)" fill="#0f385c"/>
      <path id="Path_16096" data-name="Path 16096" d="M99.022.025c3.281,0,6.463-.07,9.64.023a8.713,8.713,0,0,1,5.962,2.577c3.439,3.379,6.829,6.807,10.239,10.216a1.774,1.774,0,0,1,.125.172,3.513,3.513,0,0,1-.4.049q-5.812,0-11.624,0a2.067,2.067,0,0,1-1.55-.619Q105.339,6.358,99.25.281c-.057-.057-.108-.121-.228-.256" transform="translate(-78.888 0)" fill="#0f385c"/>
      <path id="Path_16097" data-name="Path 16097" d="M19.183,50.489h-19V47.032H.705q7.258,0,14.516-.007a1.069,1.069,0,0,1,.843.345c1,1.026,2.026,2.031,3.118,3.119" transform="translate(-0.149 -37.463)" fill="#0f385c"/>
    </g>
  </g>
</svg>
