<svg xmlns="http://www.w3.org/2000/svg" xmlns:xlink="http://www.w3.org/1999/xlink" width="39.109" height="39.101" viewBox="0 0 39.109 39.101">
  <defs>
    <clipPath id="clip-path">
      <rect id="Rectangle_650" data-name="Rectangle 650" width="39.109" height="39.101" fill="#0f385c"/>
    </clipPath>
  </defs>
  <g id="Group_941" data-name="Group 941" opacity="0.9">
    <g id="Group_940" data-name="Group 940" clip-path="url(#clip-path)">
      <path id="Path_16093" data-name="Path 16093" d="M25.135,14.33v-.4c0-2.685-.005-5.371.007-8.056a.46.46,0,0,0-.354-.516,2.767,2.767,0,0,1-1.7-3.083A2.8,2.8,0,0,1,25.9,0a2.769,2.769,0,0,1,2.68,2.276,2.762,2.762,0,0,1-1.742,3.12c-.2.079-.309.147-.308.394.011,2.6.006,5.193.007,7.789,0,.062.012.124.023.236.592-.2,1.161-.4,1.733-.586a73.314,73.314,0,0,1,9.918-2.5.7.7,0,0,1,.9.711q.01,4.486,0,8.973c0,.428-.193.643-.659.749a22.8,22.8,0,0,0-7.5,3.169,22.385,22.385,0,0,0-9.1,12.057c-.228.685-.41,1.386-.61,2.08a.725.725,0,0,1-.817.632q-9.7,0-19.4,0A.711.711,0,0,1,.274,38.09,29.2,29.2,0,0,1,8.326,24.615a5.19,5.19,0,0,0,1.824-3.326A6.764,6.764,0,0,0,8.8,16.559a11.273,11.273,0,0,0-4.231-3.424c-1.25-.61-2.565-1.09-3.862-1.6C.134,11.313,0,11.186,0,10.574Q0,8.513,0,6.451c0-.567.261-.842.807-.818A56.979,56.979,0,0,1,15.52,7.944a19.317,19.317,0,0,1,6.566,3.291,8.447,8.447,0,0,1,2.205,2.6.79.79,0,0,0,.844.492M13.178,32.766a1.792,1.792,0,0,0-.126-.36.673.673,0,0,0-1.218.106c-.581,1.363-1.118,2.745-1.664,4.123a.748.748,0,0,0-.037.373.638.638,0,0,0,.6.586.7.7,0,0,0,.769-.543c.513-1.3,1.034-2.588,1.548-3.883.051-.128.082-.263.125-.4m5.1-7.01a3.37,3.37,0,0,0-.514-.55.543.543,0,0,0-.73.119c-.939,1.066-1.875,2.135-2.771,3.237a.841.841,0,0,0-.014.731.662.662,0,0,0,1.142.037c.867-1,1.733-1.99,2.588-2.995a3.23,3.23,0,0,0,.3-.58m-.843-10.915a2.256,2.256,0,0,0-.229-.5A12.615,12.615,0,0,0,14.3,11.914a.691.691,0,0,0-.73,1.174c.143.1.307.183.442.3.7.6,1.41,1.2,2.1,1.811.25.222.524.377.818.207a2.447,2.447,0,0,0,.511-.561m5.576,5.914a.887.887,0,0,0-.3.09c-.921.628-1.844,1.255-2.746,1.91a.625.625,0,0,0-.109.889.675.675,0,0,0,.905.217,4.469,4.469,0,0,0,.372-.264c.753-.515,1.509-1.026,2.259-1.546a.666.666,0,0,0,.318-.785.687.687,0,0,0-.7-.512m2.823-1.38c-.028.649.483,1,.976.8.936-.388,1.867-.789,2.8-1.2a.692.692,0,0,0,.383-.918.682.682,0,0,0-.889-.369c-.949.39-1.9.786-2.826,1.22-.211.1-.345.362-.44.467M11.922,10.941c-.134-.183-.266-.368-.406-.546a.316.316,0,0,0-.132-.074c-.87-.349-1.736-.707-2.612-1.04a.692.692,0,0,0-.946.385.682.682,0,0,0,.421.9c.89.367,1.781.731,2.679,1.076a.758.758,0,0,0,1-.7M2.227,7.662a.772.772,0,0,0-.767.684.718.718,0,0,0,.632.739q1.347.254,2.694.506a.7.7,0,0,0,.834-.544.661.661,0,0,0-.484-.8c-.966-.214-1.939-.395-2.909-.588m30.71,10.2c1.009-.239,2.011-.457,3-.72a.63.63,0,0,0,.36-.79.652.652,0,0,0-.7-.516q-1.467.31-2.919.684a.663.663,0,0,0-.432.762.722.722,0,0,0,.7.579" transform="translate(0 0.001)" fill="#0f385c"/>
    </g>
  </g>
</svg>
