<svg xmlns="http://www.w3.org/2000/svg" xmlns:xlink="http://www.w3.org/1999/xlink" width="39.107" height="39.101" viewBox="0 0 39.107 39.101">
  <defs>
    <clipPath id="clip-path">
      <rect id="Rectangle_649" data-name="Rectangle 649" width="39.107" height="39.1" fill="#0f385c"/>
    </clipPath>
  </defs>
  <g id="Group_939" data-name="Group 939" opacity="0.9">
    <g id="Group_938" data-name="Group 938" clip-path="url(#clip-path)">
      <path id="Path_16090" data-name="Path 16090" d="M0,102.171H22.793v4.865h8.132v11.436H.476c-.159,0-.317,0-.476.007V102.171m16.34,6.478h3.173V105.47H16.34Zm-9.854-3.176H3.315v3.172H6.486Zm3.35-.03v3.2h3.2c0-1,.006-1.983-.012-2.961,0-.083-.168-.231-.259-.233-.963-.017-1.927-.011-2.927-.011m3.24,9.712h3.181V112H13.076Zm-6.505.006H9.735V112H6.57Z" transform="translate(0 -79.378)" fill="#0f385c"/>
      <path id="Path_16091" data-name="Path 16091" d="M35.762,0c.553.124,1.118.208,1.656.379a2.042,2.042,0,0,1,1.219,3.344,5.593,5.593,0,0,1-3.448,2.37c-3.19.877-6.39,1.718-9.58,2.6a1.961,1.961,0,0,0-.861.517c-1.91,2.019-3.795,4.062-5.7,6.087a1.306,1.306,0,0,1-.595.341c-.9.236-1.81.439-2.805.675.519-1.8,1.019-3.542,1.54-5.354-.938.244-1.814.486-2.7.7A16.5,16.5,0,0,1,2.506,10.135a.893.893,0,0,1-.513-.674c-.068-.341-.176-.674-.265-1.01a.526.526,0,0,1,.013-.108l1.442-.419c.008-.051.025-.085.015-.1Q1.6,4.958,0,2.1V2c.919-.227,1.835-.475,2.761-.669a1.22,1.22,0,0,1,.787.106c2.413,1.369,4.807,2.77,7.22,4.139a1.156,1.156,0,0,0,.788.1c4.285-1.135,8.561-2.3,12.844-3.442C26.815,1.592,29.234.956,31.66.347c.686-.172,1.4-.234,2.1-.347Z" transform="translate(0.001)" fill="#0f385c"/>
      <path id="Path_16092" data-name="Path 16092" d="M150.688,90.277H147.4v-.626q0-6.771.007-13.542a.9.9,0,0,0-.351-.827,3.172,3.172,0,0,1-1.317-3.108c.117-1.9.03-3.813.03-5.72v-.548h6.525c.006.146.016.269.016.393,0,2.448.008,4.9-.012,7.343a.9.9,0,0,1-.283.645,3.5,3.5,0,0,0-1.362,3.287c.1,4.035.034,8.074.034,12.111Z" transform="translate(-113.218 -51.203)" fill="#0f385c"/>
    </g>
  </g>
</svg>
