<svg xmlns="http://www.w3.org/2000/svg" xmlns:xlink="http://www.w3.org/1999/xlink" width="39.081" height="39.101" viewBox="0 0 39.081 39.101">
  <defs>
    <clipPath id="clip-path">
      <rect id="Rectangle_648" data-name="Rectangle 648" width="39.081" height="39.101" fill="#0f385c"/>
    </clipPath>
  </defs>
  <g id="Group_937" data-name="Group 937" opacity="0.9">
    <g id="Group_936" data-name="Group 936" clip-path="url(#clip-path)">
      <path id="Path_16085" data-name="Path 16085" d="M204.044,119.861a1.392,1.392,0,0,1-.849-1.459c.032-1.806.011-3.613.011-5.42v-.453c-.486,0-.94,0-1.394,0a1.145,1.145,0,1,1,.015-2.286q7.307,0,14.614,0h.5c0-.157,0-.292,0-.426q0-6.794-.01-13.587a1.111,1.111,0,0,0-.229-.643c-1.384-1.727-2.785-3.439-4.181-5.155-.117-.144-.232-.29-.4-.5,1,0,1.925-.008,2.847.011.107,0,.23.136.313.235.533.642,1.057,1.292,1.643,2.01V89.931h2.3v29.09a1.771,1.771,0,0,1-.84.84Z" transform="translate(-180.153 -80.76)" fill="#0f385c"/>
      <path id="Path_16086" data-name="Path 16086" d="M125.193,6.88l-28.007,0c-.838,0-1.389-.495-1.283-1.236a1.379,1.379,0,0,1,.461-.827Q99.373,2.5,102.435.26a1.592,1.592,0,0,1,.89-.24c6.8-.013,13.609,0,20.413-.02a1.376,1.376,0,0,1,1.455.848Z" transform="translate(-86.112 0)" fill="#0f385c"/>
      <path id="Path_16087" data-name="Path 16087" d="M.838,333.271a1.233,1.233,0,0,1-.584-1.942q.873-1.735,1.749-3.468c.056-.111.121-.218.157-.283l2.231.652-.709,1.432H15.855l-.712-1.439,2.235-.647c.028.05.1.165.157.285q.876,1.734,1.749,3.468a1.235,1.235,0,0,1-.584,1.943h-.611a1.622,1.622,0,0,1-.9-.975.461.461,0,0,0-.51-.331q-6.914.014-13.828,0a.462.462,0,0,0-.51.332,1.627,1.627,0,0,1-.9.975Z" transform="translate(0 -294.17)" fill="#0f385c"/>
      <path id="Path_16088" data-name="Path 16088" d="M2.511,106.749c.216.96.407,1.823.6,2.685.31,1.36.612,2.723.937,4.079A3.951,3.951,0,0,0,7.167,116.7a11.59,11.59,0,0,0,5.134.109,3.972,3.972,0,0,0,3.264-3.258q.738-3.207,1.468-6.416c.023-.1.058-.194.087-.291a3.346,3.346,0,0,1,2.474,3.191c-.046,3.854-.032,7.709-.009,11.563A5.439,5.439,0,0,1,17.645,126c-.357.305-.686.644-1.04.954a2.371,2.371,0,0,1-1.606.6H4.659a2.411,2.411,0,0,1-1.665-.648c-.472-.426-.941-.856-1.393-1.3A4.93,4.93,0,0,1,.089,122.01c-.018-4.1-.008-8.192-.006-12.288a2.549,2.549,0,0,1,1.06-2.062c.412-.324.873-.586,1.367-.911M13.847,122.53a1.128,1.128,0,1,0-1.136-1.13,1.114,1.114,0,0,0,1.136,1.13m-6.9-1.094a1.127,1.127,0,1,0-1.169,1.093,1.116,1.116,0,0,0,1.169-1.093" transform="translate(-0.071 -95.863)" fill="#0f385c"/>
      <path id="Path_16089" data-name="Path 16089" d="M55.67,95.156c-.374,1.632-.736,3.212-1.1,4.792-.167.729-.344,1.457-.5,2.188a1.813,1.813,0,0,1-1.519,1.541,9.025,9.025,0,0,1-4.442-.194,1.531,1.531,0,0,1-1.066-1.236c-.411-1.74-.81-3.483-1.21-5.226-.138-.6-.265-1.21-.406-1.854a23.945,23.945,0,0,1,10.243-.011" transform="translate(-40.795 -84.959)" fill="#0f385c"/>
    </g>
  </g>
</svg>
