<svg xmlns="http://www.w3.org/2000/svg" xmlns:xlink="http://www.w3.org/1999/xlink" width="33.629" height="32.491" viewBox="0 0 33.629 32.491">
  <defs>
    <clipPath id="clip-path">
      <rect id="Rectangle_340" data-name="Rectangle 340" width="33.629" height="32.491" fill="#fff"/>
    </clipPath>
  </defs>
  <g id="Group_277" data-name="Group 277" clip-path="url(#clip-path)">
    <path id="Path_15804" data-name="Path 15804" d="M3.357,29.151V26.922H8.372V25.79H3.357V23.555H8.382V22.434H3.359V20.193H8.381V19.066H3.358V16.819H8.386V15.694H3.366V13.448H8.376V12.321H3.363V10.08H8.377V8.959H3.364V6.723H8.376V5.6H3.365V3.361H8.374V2.234H3.365V0H13.445V31.363h1.118v-1.08h3.914V29.157H14.6V26.912h3.881V25.79H14.6V23.552h3.882V22.443H14.6V20.186h3.882V19.07H14.6V16.816h3.878V15.7H14.6V13.444h3.879V12.329H14.6V10.072h3.887V8.963H14.6V6.9l2.236.637c1.355.385,2.707.781,4.066,1.149a.453.453,0,0,1,.4.53q-.016,10.849-.008,21.7v.447h1.122c0-.282.012-.554,0-.824-.013-.222.077-.282.286-.276.458.013.916,0,1.393,0V29.161H22.443V26.91h1.65V25.8H22.445V23.554h1.647V22.445H22.447V20.194H24.09V19.062c-.424,0-.857-.016-1.288.006-.289.014-.41-.054-.392-.374.028-.513.024-1.03,0-1.544-.013-.286.094-.353.357-.342.435.019.872.005,1.326.005V15.685c-.445,0-.89-.015-1.334.006-.275.013-.354-.078-.349-.351.017-.865.006-1.731.006-2.629a1.337,1.337,0,0,1,.219.063c.978.487,1.952.984,2.935,1.46.217.105.225.256.225.449q0,8.1,0,16.208v.477h3.917v-.3c0-.964,0-1.929,0-2.893a.473.473,0,0,0-.214-.434,2.591,2.591,0,0,1-.157-3.807,1.368,1.368,0,0,1,1.992.115,2.637,2.637,0,0,1-.328,3.744.414.414,0,0,0-.167.28c-.011,1.063-.005,2.126,0,3.189a.662.662,0,0,0,.04.134h2.75v1.1H0V31.4H3.331V30.278H8.382V29.151Z" transform="translate(0 -0.001)" fill="#fff"/>
  </g>
</svg>
