<svg xmlns="http://www.w3.org/2000/svg" xmlns:xlink="http://www.w3.org/1999/xlink" width="32.853" height="31.755" viewBox="0 0 32.853 31.755">
  <defs>
    <clipPath id="clip-path">
      <rect id="Rectangle_331" data-name="Rectangle 331" width="32.853" height="31.755" fill="#fff"/>
    </clipPath>
  </defs>
  <g id="Group_265" data-name="Group 265" clip-path="url(#clip-path)">
    <path id="Path_15775" data-name="Path 15775" d="M0,294.435a.863.863,0,0,1,.825-.367q3.754.009,7.508,0h.431v-.4c0-1.337-.007-2.674.009-4.01a.906.906,0,0,1,.208-.493c.28-.362.59-.7.869-1.027.329.369.687.758,1.027,1.163a.546.546,0,0,1,.078.326c0,1.347,0,2.7,0,4.043v.372h9.821v-1.593c-.43-.05-1.047.1-1.042-.578.005-.662.611-.5,1.047-.549V290.8c-.439-.04-1.06.118-1.048-.567.011-.648.609-.512,1.05-.551v-1.6c-.179-.009-.356-.01-.532-.029a.538.538,0,0,1-.01-1.076,1.689,1.689,0,0,1,.32-.01c.158.01.22-.061.311-.2a.718.718,0,0,1,.489-.32.687.687,0,0,1,.481.33.3.3,0,0,0,.315.184q4.123,0,8.246,0c.173,0,.238-.066.331-.21a.672.672,0,0,1,.465-.308.722.722,0,0,1,.491.317.338.338,0,0,0,.342.2,1.683,1.683,0,0,1,.382.028.491.491,0,0,1,.43.519.486.486,0,0,1-.43.518c-.2.033-.4.033-.628.05v1.6c.428.051,1-.111,1.059.57.034.361-.207.478-1.059.562v.54c.174,0,.353-.009.53,0a.534.534,0,0,1,.072,1.064,5.378,5.378,0,0,1-.6.039v1.622c.157,0,.314-.01.47,0a.565.565,0,0,1,.593.548c0,.309-.228.517-.594.542-.085.006-.171,0-.257,0q-15.577,0-31.153,0c-.359,0-.689-.024-.848-.416Zm30.652-6.381H22.3a.573.573,0,0,0-.222.008c-.07.032-.168.107-.17.166-.014.478-.008.956-.008,1.441h8.751Zm0,4.4H21.92v1.594h8.734Zm0-1.65H21.927v.508h8.725Z" transform="translate(0 -263.417)" fill="#fff"/>
    <path id="Path_15776" data-name="Path 15776" d="M22.977,61l3.382-3.38a2.97,2.97,0,0,0,.243-.255.542.542,0,0,0-.773-.759,3.311,3.311,0,0,0-.255.244l-2.358,2.361c-.079.079-.164.153-.3.282v-.38c0-1.626-.006-3.251.009-4.877a.79.79,0,0,1,.2-.5c.744-.768,1.516-1.509,2.257-2.28a.9.9,0,0,0,.245-.58.55.55,0,0,0-.338-.4.719.719,0,0,0-.573.129c-.515.465-.994.971-1.483,1.466a3.056,3.056,0,0,0-.218.276l-.076-.042a2.221,2.221,0,0,1-.024-.232c0-.7,0-1.39,0-2.085,0-.407-.214-.66-.541-.66s-.546.252-.549.657c-.005.767,0,1.534,0,2.391-.27-.269-.484-.481-.7-.695-.348-.348-.691-.7-1.043-1.044a.555.555,0,1,0-.77.782c.776.782,1.561,1.555,2.335,2.338a.534.534,0,0,1,.168.319c.01,1.775.007,3.55.007,5.4-.122-.113-.2-.183-.279-.259L19.117,56.8a2.082,2.082,0,0,0-.236-.217.534.534,0,0,0-.728.038.544.544,0,0,0-.025.729,2.473,2.473,0,0,0,.219.234q1.576,1.578,3.153,3.154c.083.082.181.149.282.231a4.346,4.346,0,0,1-3.248,2.017,4.5,4.5,0,0,1-4.746-3.258,4.679,4.679,0,0,1,2.345-5.463c.17-.088.355-.147.531-.224a.557.557,0,0,0,.223-.971A4.01,4.01,0,0,1,15.78,49.9a3.866,3.866,0,0,1,2.558-3.268,6.119,6.119,0,0,1,1.128-.206c.521-.052.765-.459.481-.9a3.712,3.712,0,0,1-.592-1.605,3.094,3.094,0,0,1,2.635-3.349,2.868,2.868,0,0,1,2.9,1.367,3.049,3.049,0,0,1,.057,3.339c-.047.084-.108.16-.156.243a.563.563,0,0,0,.492.9,3.9,3.9,0,0,1,2.669,6.533,1.252,1.252,0,0,0-.279.419c-.093.292.081.537.472.686a4.366,4.366,0,0,1,2.3,1.908,4.533,4.533,0,0,1,.151,4.62,4.4,4.4,0,0,1-7.619.41" transform="translate(-12.514 -37.292)" fill="#fff"/>
    <path id="Path_15777" data-name="Path 15777" d="M277.448,67.947c-1.047,0-2.095.011-3.142,0a1.64,1.64,0,0,1-1.638-2.195,1.549,1.549,0,0,1,1.353-1.071c.574-.07.7-.2.758-.786a2.726,2.726,0,0,1,5.375-.393,3.993,3.993,0,0,1,.08.6.554.554,0,0,0,.525.547,3.48,3.48,0,0,1,.532.1,1.626,1.626,0,0,1,1.123,1.647,1.581,1.581,0,0,1-1.346,1.5c-.6.067-1.215.044-1.824.051s-1.2,0-1.8,0" transform="translate(-250.656 -56.449)" fill="#fff"/>
    <path id="Path_15778" data-name="Path 15778" d="M18.266,6.546c-1.084,0-2.143.048-3.195-.015a1.582,1.582,0,0,1-1.435-1.647,1.638,1.638,0,0,1,1.508-1.591c.485-.046.637-.181.683-.671A2.666,2.666,0,0,1,17.545.205,2.7,2.7,0,0,1,21.24,2.311a4.314,4.314,0,0,0-2.2,1.607,4.386,4.386,0,0,0-.778,2.628" transform="translate(-12.539 0)" fill="#fff"/>
  </g>
</svg>
