<svg xmlns="http://www.w3.org/2000/svg" xmlns:xlink="http://www.w3.org/1999/xlink" width="32.278" height="32.245" viewBox="0 0 32.278 32.245">
  <defs>
    <clipPath id="clip-path">
      <rect id="Rectangle_339" data-name="Rectangle 339" width="32.278" height="32.245" fill="#fff"/>
    </clipPath>
  </defs>
  <g id="Group_275" data-name="Group 275" clip-path="url(#clip-path)">
    <path id="Path_15800" data-name="Path 15800" d="M6.919,16.7c-.942-.942-1.873-1.865-2.795-2.8-.871-.88-1.8-1.715-2.586-2.664A6.917,6.917,0,1,1,13.683,5.4a6.544,6.544,0,0,1-1.664,6.2c-1.614,1.723-3.326,3.353-5,5.023a1.079,1.079,0,0,1-.1.076m4.11-9.788a4.1,4.1,0,1,0-4.1,4.1,4.107,4.107,0,0,0,4.1-4.1" transform="translate(0 0)" fill="#fff"/>
    <path id="Path_15801" data-name="Path 15801" d="M180.555,171.221c-1.238-1.206-2.61-2.41-3.819-3.758a4.628,4.628,0,0,1-.861-4.974,4.767,4.767,0,0,1,3.947-3.205,4.987,4.987,0,0,1,5.717,4.056,4.511,4.511,0,0,1-1.031,4.034c-1.254,1.365-2.654,2.6-3.953,3.848" transform="translate(-153.363 -139.131)" fill="#fff"/>
    <path id="Path_15802" data-name="Path 15802" d="M64,130.224v1.889h-.343q-5.072,0-10.145,0a6.105,6.105,0,0,1-6.057-5.1,6.035,6.035,0,0,1,5.191-6.981c1.35-.147,2.725-.059,4.089-.079a3.252,3.252,0,0,0,.471-.02,1.877,1.877,0,0,0-.276-3.74c-1.081-.016-2.163,0-3.245,0h-.362v-1.865a2.1,2.1,0,0,1,.23-.024c1.145,0,2.29-.019,3.434,0a3.769,3.769,0,0,1,.03,7.537c-1.187.013-2.373,0-3.56,0a4.188,4.188,0,0,0-.8,8.3,4.959,4.959,0,0,0,.939.078q4.994.008,9.987,0Z" transform="translate(-41.395 -99.869)" fill="#fff"/>
    <path id="Path_15803" data-name="Path 15803" d="M41.888,39.552a2.2,2.2,0,1,1-2.2-2.195,2.2,2.2,0,0,1,2.2,2.195" transform="translate(-32.751 -32.643)" fill="#fff"/>
  </g>
</svg>
