<svg xmlns="http://www.w3.org/2000/svg" xmlns:xlink="http://www.w3.org/1999/xlink" width="33.398" height="33.344" viewBox="0 0 33.398 33.344">
  <defs>
    <clipPath id="clip-path">
      <rect id="Rectangle_345" data-name="Rectangle 345" width="33.398" height="33.344" fill="#fff"/>
    </clipPath>
  </defs>
  <g id="Group_284" data-name="Group 284" clip-path="url(#clip-path)">
    <path id="Path_15810" data-name="Path 15810" d="M172.141,157.646a2.284,2.284,0,0,0-.918-1.338c-.079-.057-.168-.1-.247-.156a.975.975,0,0,1,1.038-1.65A4.176,4.176,0,0,1,174,157.012c.064.205.112.416.175.652.336-.05.671-.111,1.009-.148a2.939,2.939,0,0,1,3.04,1.45,5.39,5.39,0,0,1,.376,4.962,7.515,7.515,0,0,1-1.958,2.842,2.573,2.573,0,0,1-2.452.724,3.75,3.75,0,0,0-1.877,0,2.438,2.438,0,0,1-2.325-.621,6.837,6.837,0,0,1-2.5-5.294,5.019,5.019,0,0,1,.664-2.419,3.122,3.122,0,0,1,3.55-1.6l.438.09" transform="translate(-145.633 -134.23)" fill="#fff"/>
    <path id="Path_15811" data-name="Path 15811" d="M6.186,10.235A3.622,3.622,0,0,1,8.7,9.347,3.564,3.564,0,0,1,12.026,11.6a3.426,3.426,0,0,1-.622,3.9c-1.456,1.564-3,3.047-4.515,4.554a.949.949,0,0,1-1.422-.007c-1.507-1.5-3.036-2.982-4.5-4.528A3.429,3.429,0,0,1,.244,11.83,3.558,3.558,0,0,1,3.161,9.4a3.713,3.713,0,0,1,3.026.837" transform="translate(0 -8.122)" fill="#fff"/>
    <path id="Path_15812" data-name="Path 15812" d="M96.429,83.4a2.931,2.931,0,0,1-2.515-3.1,2.869,2.869,0,0,1,5.71-.044,2.948,2.948,0,0,1-2.491,3.156,4.722,4.722,0,0,1,3.032,1.466,4.66,4.66,0,0,1,1.279,3.181c.01.347.014.695,0,1.042a.925.925,0,0,1-1.018.974q-3.663,0-7.327,0a.867.867,0,0,1-.971-.8A5.976,5.976,0,0,1,92.5,86.2,4.727,4.727,0,0,1,96.429,83.4" transform="translate(-80.069 -67.552)" fill="#fff"/>
    <path id="Path_15813" data-name="Path 15813" d="M168.25,6.685V6.278q0-2.557,0-5.114c0-.913.445-1.292,1.338-1.127q3.338.617,6.673,1.246a.984.984,0,0,1,.869,1.047q0,4.267,0,8.534a2.434,2.434,0,1,1-2.953-2.39,6.666,6.666,0,0,1,.983-.061V3.065L170.2,2.134v.407q0,3.192,0,6.384a2.46,2.46,0,0,1-1.615,2.462,2.422,2.422,0,0,1-2.666-.684,2.429,2.429,0,0,1,1.97-4.035c.106.006.211.01.358.016" transform="translate(-143.745 0)" fill="#fff"/>
    <path id="Path_15814" data-name="Path 15814" d="M52.242,190.7v-.371c0-2.745,0-5.49-.006-8.234,0-.269.075-.37.341-.429a12.723,12.723,0,0,1,3.527-.216.99.99,0,0,1,1,1.093q0,3.369,0,6.737a1,1,0,0,1-1.118,1.059,9.171,9.171,0,0,0-3.538.319c-.049.014-.1.021-.2.041" transform="translate(-45.42 -157.742)" fill="#fff"/>
    <path id="Path_15815" data-name="Path 15815" d="M4.976,190.636c-.631-.1-1.245-.241-1.866-.293a13.425,13.425,0,0,0-1.819-.006,1.007,1.007,0,0,1-1.135-1.01q-.006-3.419,0-6.839a.972.972,0,0,1,.975-1.045,12.276,12.276,0,0,1,3.624.236c.184.044.25.116.249.3q-.007,4.25,0,8.5a.837.837,0,0,1-.023.154" transform="translate(-0.133 -157.735)" fill="#fff"/>
    <path id="Path_15816" data-name="Path 15816" d="M8.393,95.2a15.673,15.673,0,0,1,.548-4.049.979.979,0,1,1,1.889.483,13.881,13.881,0,0,0-.451,4.185A13.461,13.461,0,0,0,10.96,99.2a.988.988,0,0,1-.614,1.338.923.923,0,0,1-1.194-.612c-.253-1.016-.47-2.043-.649-3.074a14.894,14.894,0,0,1-.11-1.653" transform="translate(-7.298 -78.535)" fill="#fff"/>
    <path id="Path_15817" data-name="Path 15817" d="M105.776,7.8a16.649,16.649,0,0,1,5.508,1.045.943.943,0,0,1,.655.815.916.916,0,0,1-.4.9.971.971,0,0,1-.959.1,13.5,13.5,0,0,0-5.424-.843c-.519.025-1.037.089-1.553.15a.99.99,0,0,1-1.134-.784.948.948,0,0,1,.819-1.128c.826-.109,1.658-.176,2.488-.261" transform="translate(-89.086 -6.784)" fill="#fff"/>
    <path id="Path_15818" data-name="Path 15818" d="M105.533,231.816c-1-.1-1.849-.172-2.7-.278a.959.959,0,0,1-.85-1.134,1,1,0,0,1,1.165-.779,14.14,14.14,0,0,0,5.167-.147.985.985,0,0,1,1.249.777.971.971,0,0,1-.856,1.137c-1.1.165-2.206.3-3.18.423" transform="translate(-88.666 -199.506)" fill="#fff"/>
    <path id="Path_15819" data-name="Path 15819" d="M230.746,111.922a15.841,15.841,0,0,1-.613,4.263.943.943,0,0,1-.762.715.926.926,0,0,1-.951-.361.985.985,0,0,1-.154-.925,13.865,13.865,0,0,0,.448-5.017.97.97,0,0,1,.876-1.059.944.944,0,0,1,1.065.892c.042.5.061.994.091,1.492" transform="translate(-198.437 -95.241)" fill="#fff"/>
  </g>
</svg>
