<svg xmlns="http://www.w3.org/2000/svg" xmlns:xlink="http://www.w3.org/1999/xlink" width="129.139" height="129.141" viewBox="0 0 129.139 129.141">
  <defs>
    <clipPath id="clip-path">
      <rect id="Rectangle_1019" data-name="Rectangle 1019" width="129.139" height="129.141" fill="#fff"/>
    </clipPath>
  </defs>
  <g id="Group_1702" data-name="Group 1702" transform="translate(-334.341 -14939.43)">
    <g id="Ellipse_240" data-name="Ellipse 240" transform="translate(353.911 14959)" fill="none" stroke="#fff" stroke-width="1">
      <circle cx="45" cy="45" r="45" stroke="none"/>
      <circle cx="45" cy="45" r="44.5" fill="none"/>
    </g>
    <path id="Polygon_1" data-name="Polygon 1" d="M14.808,4.473a3,3,0,0,1,5.19,0L32.193,25.495A3,3,0,0,1,29.6,30H5.209a3,3,0,0,1-2.595-4.505Z" transform="translate(418.911 14986.597) rotate(90)" fill="#fff"/>
    <g id="Group_1701" data-name="Group 1701" transform="translate(334.341 14939.43)">
      <g id="Group_1692" data-name="Group 1692">
        <g id="Group_1691" data-name="Group 1691" clip-path="url(#clip-path)">
          <text id="T" transform="translate(59.193 10.909) rotate(-1.814)" fill="#fff" font-size="12" font-family="Roboto-Medium, Roboto" font-weight="500"><tspan x="0" y="0">T</tspan></text>
          <text id="A" transform="matrix(0.995, 0.097, -0.097, 0.995, 65.883, 10.635)" fill="#fff" font-size="12" font-family="Roboto-Medium, Roboto" font-weight="500"><tspan x="0" y="0">A</tspan></text>
          <text id="K" transform="translate(73.899 11.436) rotate(13.938)" fill="#fff" font-size="12" font-family="Roboto-Medium, Roboto" font-weight="500"><tspan x="0" y="0">K</tspan></text>
        </g>
      </g>
      <text id="E" transform="translate(81.336 13.317) rotate(21.74)" fill="#fff" font-size="12" font-family="Roboto-Medium, Roboto" font-weight="500"><tspan x="0" y="0">E</tspan></text>
      <text id="_" data-name=" " transform="translate(87.751 15.98) rotate(27.143)" fill="#fff" font-size="12" font-family="Roboto-Medium, Roboto" font-weight="500"><tspan x="0" y="0"> </tspan></text>
      <text id="A-2" data-name="A" transform="translate(90.617 17.312) rotate(33.16)" fill="#fff" font-size="12" font-family="Roboto-Medium, Roboto" font-weight="500"><tspan x="0" y="0">A</tspan></text>
      <text id="_2" data-name=" " transform="translate(97.353 21.879) rotate(39.147)" fill="#fff" font-size="12" font-family="Roboto-Medium, Roboto" font-weight="500"><tspan x="0" y="0"> </tspan></text>
      <text id="T-2" data-name="T" transform="translate(99.611 23.58) rotate(44.402)" fill="#fff" font-size="12" font-family="Roboto-Medium, Roboto" font-weight="500"><tspan x="0" y="0">T</tspan></text>
      <text id="O" transform="translate(104.786 28.591) rotate(52.544)" fill="#fff" font-size="12" font-family="Roboto-Medium, Roboto" font-weight="500"><tspan x="0" y="0">O</tspan></text>
      <text id="U" transform="translate(109.858 35.249) rotate(61.184)" fill="#fff" font-size="12" font-family="Roboto-Medium, Roboto" font-weight="500"><tspan x="0" y="0">U</tspan></text>
      <text id="R" transform="translate(113.652 42.18) rotate(69.448)" fill="#fff" font-size="12" font-family="Roboto-Medium, Roboto" font-weight="500"><tspan x="0" y="0">R</tspan></text>
      <text id="_3" data-name=" " transform="matrix(0.257, 0.966, -0.966, 0.257, 116.217, 49.378)" fill="#fff" font-size="11.015" font-family="Roboto-Medium, Roboto" font-weight="500"><tspan x="0" y="0"> </tspan></text>
      <g id="Group_1694" data-name="Group 1694">
        <g id="Group_1693" data-name="Group 1693" clip-path="url(#clip-path)">
          <text id="_4" data-name="•" transform="translate(116.983 52.211) rotate(78.839)" fill="#fff" font-size="11.015" font-family="Roboto-Medium, Roboto" font-weight="500"><tspan x="0" y="0">•</tspan></text>
          <text id="_5" data-name=" " transform="matrix(0.129, 0.992, -0.992, 0.129, 117.742, 56.19)" fill="#fff" font-size="11.015" font-family="Roboto-Medium, Roboto" font-weight="500"><tspan x="0" y="0"> </tspan></text>
          <text id="T-3" data-name="T" transform="translate(118.216 59.047) rotate(88.027)" fill="#fff" font-size="12" font-family="Roboto-Medium, Roboto" font-weight="500"><tspan x="0" y="0">T</tspan></text>
          <text id="A-3" data-name="A" transform="matrix(-0.094, 0.996, -0.996, -0.094, 118.508, 65.737)" fill="#fff" font-size="12" font-family="Roboto-Medium, Roboto" font-weight="500"><tspan x="0" y="0">A</tspan></text>
          <text id="K-2" data-name="K" transform="translate(117.725 73.781) rotate(103.803)" fill="#fff" font-size="12" font-family="Roboto-Medium, Roboto" font-weight="500"><tspan x="0" y="0">K</tspan></text>
        </g>
      </g>
      <text id="E-2" data-name="E" transform="translate(115.867 81.204) rotate(111.587)" fill="#fff" font-size="12" font-family="Roboto-Medium, Roboto" font-weight="500"><tspan x="0" y="0">E</tspan></text>
      <text id="_6" data-name=" " transform="translate(113.222 87.627) rotate(116.991)" fill="#fff" font-size="12" font-family="Roboto-Medium, Roboto" font-weight="500"><tspan x="0" y="0"> </tspan></text>
      <text id="A-4" data-name="A" transform="matrix(-0.545, 0.839, -0.839, -0.545, 111.897, 90.496)" fill="#fff" font-size="12" font-family="Roboto-Medium, Roboto" font-weight="500"><tspan x="0" y="0">A</tspan></text>
      <text id="_7" data-name=" " transform="translate(107.359 97.23) rotate(128.976)" fill="#fff" font-size="12" font-family="Roboto-Medium, Roboto" font-weight="500"><tspan x="0" y="0"> </tspan></text>
      <text id="T-4" data-name="T" transform="matrix(-0.698, 0.717, -0.717, -0.698, 105.666, 99.493)" fill="#fff" font-size="12" font-family="Roboto-Medium, Roboto" font-weight="500"><tspan x="0" y="0">T</tspan></text>
      <text id="O-2" data-name="O" transform="matrix(-0.792, 0.61, -0.61, -0.792, 100.655, 104.697)" fill="#fff" font-size="12" font-family="Roboto-Medium, Roboto" font-weight="500"><tspan x="0" y="0">O</tspan></text>
      <text id="U-2" data-name="U" transform="matrix(-0.875, 0.485, -0.485, -0.875, 94.028, 109.773)" fill="#fff" font-size="12" font-family="Roboto-Medium, Roboto" font-weight="500"><tspan x="0" y="0">U</tspan></text>
      <text id="R-2" data-name="R" transform="matrix(-0.935, 0.354, -0.354, -0.935, 87.109, 113.587)" fill="#fff" font-size="12" font-family="Roboto-Medium, Roboto" font-weight="500"><tspan x="0" y="0">R</tspan></text>
      <text id="_8" data-name=" " transform="matrix(-0.966, 0.26, -0.26, -0.966, 79.901, 116.18)" fill="#fff" font-size="11.015" font-family="Roboto-Medium, Roboto" font-weight="500"><tspan x="0" y="0"> </tspan></text>
      <g id="Group_1696" data-name="Group 1696">
        <g id="Group_1695" data-name="Group 1695" clip-path="url(#clip-path)">
          <text id="_9" data-name="•" transform="translate(77.05 116.959) rotate(168.705)" fill="#fff" font-size="11.015" font-family="Roboto-Medium, Roboto" font-weight="500"><tspan x="0" y="0">•</tspan></text>
          <text id="_10" data-name=" " transform="translate(73.075 117.728) rotate(172.44)" fill="#fff" font-size="11.015" font-family="Roboto-Medium, Roboto" font-weight="500"><tspan x="0" y="0"> </tspan></text>
          <text id="T-5" data-name="T" transform="translate(70.244 118.205) rotate(177.869)" fill="#fff" font-size="12" font-family="Roboto-Medium, Roboto" font-weight="500"><tspan x="0" y="0">T</tspan></text>
          <text id="A-5" data-name="A" transform="translate(63.552 118.515) rotate(-174.744)" fill="#fff" font-size="12" font-family="Roboto-Medium, Roboto" font-weight="500"><tspan x="0" y="0">A</tspan></text>
          <text id="K-3" data-name="K" transform="matrix(-0.972, -0.236, 0.236, -0.972, 55.524, 117.757)" fill="#fff" font-size="12" font-family="Roboto-Medium, Roboto" font-weight="500"><tspan x="0" y="0">K</tspan></text>
        </g>
      </g>
      <text id="E-3" data-name="E" transform="translate(48.073 115.917) rotate(-158.568)" fill="#fff" font-size="12" font-family="Roboto-Medium, Roboto" font-weight="500"><tspan x="0" y="0">E</tspan></text>
      <text id="_11" data-name=" " transform="translate(41.623 113.279) rotate(-153.14)" fill="#fff" font-size="12" font-family="Roboto-Medium, Roboto" font-weight="500"><tspan x="0" y="0"> </tspan></text>
      <text id="A-6" data-name="A" transform="translate(38.768 111.969) rotate(-147.142)" fill="#fff" font-size="12" font-family="Roboto-Medium, Roboto" font-weight="500"><tspan x="0" y="0">A</tspan></text>
      <text id="_12" data-name=" " transform="matrix(-0.779, -0.627, 0.627, -0.779, 32.006, 107.437)" fill="#fff" font-size="12" font-family="Roboto-Medium, Roboto" font-weight="500"><tspan x="0" y="0"> </tspan></text>
      <text id="T-6" data-name="T" transform="translate(29.739 105.749) rotate(-135.896)" fill="#fff" font-size="12" font-family="Roboto-Medium, Roboto" font-weight="500"><tspan x="0" y="0">T</tspan></text>
      <text id="O-3" data-name="O" transform="translate(24.538 100.765) rotate(-127.755)" fill="#fff" font-size="12" font-family="Roboto-Medium, Roboto" font-weight="500"><tspan x="0" y="0">O</tspan></text>
      <text id="U-3" data-name="U" transform="translate(19.433 94.135) rotate(-119.119)" fill="#fff" font-size="12" font-family="Roboto-Medium, Roboto" font-weight="500"><tspan x="0" y="0">U</tspan></text>
      <text id="R-3" data-name="R" transform="translate(15.604 87.227) rotate(-110.86)" fill="#fff" font-size="12" font-family="Roboto-Medium, Roboto" font-weight="500"><tspan x="0" y="0">R</tspan></text>
      <text id="_13" data-name=" " transform="translate(12.996 80.025) rotate(-105.187)" fill="#fff" font-size="11.015" font-family="Roboto-Medium, Roboto" font-weight="500"><tspan x="0" y="0"> </tspan></text>
      <g id="Group_1698" data-name="Group 1698">
        <g id="Group_1697" data-name="Group 1697" clip-path="url(#clip-path)">
          <text id="_14" data-name="•" transform="translate(12.215 77.197) rotate(-101.453)" fill="#fff" font-size="11.015" font-family="Roboto-Medium, Roboto" font-weight="500"><tspan x="0" y="0">•</tspan></text>
          <text id="_15" data-name=" " transform="translate(11.436 73.225) rotate(-97.718)" fill="#fff" font-size="11.015" font-family="Roboto-Medium, Roboto" font-weight="500"><tspan x="0" y="0"> </tspan></text>
          <text id="T-7" data-name="T" transform="matrix(-0.04, -0.999, 0.999, -0.04, 10.948, 70.378)" fill="#fff" font-size="12" font-family="Roboto-Medium, Roboto" font-weight="500"><tspan x="0" y="0">T</tspan></text>
          <text id="A-7" data-name="A" transform="translate(10.622 63.685) rotate(-84.88)" fill="#fff" font-size="12" font-family="Roboto-Medium, Roboto" font-weight="500"><tspan x="0" y="0">A</tspan></text>
          <text id="K-4" data-name="K" transform="translate(11.362 55.652) rotate(-76.51)" fill="#fff" font-size="12" font-family="Roboto-Medium, Roboto" font-weight="500"><tspan x="0" y="0">K</tspan></text>
        </g>
      </g>
      <text id="E-4" data-name="E" transform="matrix(0.363, -0.932, 0.932, 0.363, 13.18, 48.214)" fill="#fff" font-size="12" font-family="Roboto-Medium, Roboto" font-weight="500"><tspan x="0" y="0">E</tspan></text>
      <text id="_16" data-name=" " transform="translate(15.792 41.775) rotate(-63.314)" fill="#fff" font-size="12" font-family="Roboto-Medium, Roboto" font-weight="500"><tspan x="0" y="0"> </tspan></text>
      <text id="A-8" data-name="A" transform="matrix(0.54, -0.841, 0.841, 0.54, 17.102, 38.897)" fill="#fff" font-size="12" font-family="Roboto-Medium, Roboto" font-weight="500"><tspan x="0" y="0">A</tspan></text>
      <text id="_17" data-name=" " transform="matrix(0.625, -0.781, 0.781, 0.625, 21.605, 32.14)" fill="#fff" font-size="12" font-family="Roboto-Medium, Roboto" font-weight="500"><tspan x="0" y="0"> </tspan></text>
      <text id="T-8" data-name="T" transform="translate(23.288 29.868) rotate(-46.067)" fill="#fff" font-size="12" font-family="Roboto-Medium, Roboto" font-weight="500"><tspan x="0" y="0">T</tspan></text>
      <text id="O-4" data-name="O" transform="matrix(0.789, -0.614, 0.614, 0.789, 28.27, 24.637)" fill="#fff" font-size="12" font-family="Roboto-Medium, Roboto" font-weight="500"><tspan x="0" y="0">O</tspan></text>
      <text id="U-4" data-name="U" transform="translate(34.869 19.527) rotate(-29.292)" fill="#fff" font-size="12" font-family="Roboto-Medium, Roboto" font-weight="500"><tspan x="0" y="0">U</tspan></text>
      <text id="R-4" data-name="R" transform="translate(41.783 15.669) rotate(-21.014)" fill="#fff" font-size="12" font-family="Roboto-Medium, Roboto" font-weight="500"><tspan x="0" y="0">R</tspan></text>
      <g id="Group_1700" data-name="Group 1700">
        <g id="Group_1699" data-name="Group 1699" clip-path="url(#clip-path)">
          <text id="_18" data-name=" " transform="translate(48.964 13.039) rotate(-15.142)" fill="#fff" font-size="12.589" font-family="Roboto-Medium, Roboto" font-weight="500"><tspan x="0" y="0"> </tspan></text>
          <text id="_19" data-name="•" transform="matrix(0.982, -0.189, 0.189, 0.982, 52.203, 12.147)" fill="#fff" font-size="12.589" font-family="Roboto-Medium, Roboto" font-weight="500"><tspan x="0" y="0">•</tspan></text>
        </g>
      </g>
    </g>
  </g>
</svg>
